<svg id="Layer_1" data-name="Layer 1" xmlns="http://www.w3.org/2000/svg" viewBox="0 0 1153.3 1663.97"><defs><style>.cls-1{fill:none;stroke-width:4px;stroke:#fff;stroke-miterlimit:10}</style></defs><path class="cls-1" d="M564.14 562.7h37.44v7.26h14.98v14.53h7.49v29.05h-7.49v14.53h-14.98v-14.53h-7.49v-7.26h-7.49v-7.26h-7.48v-7.27h-7.49v-14.53h-7.49z"/><path class="cls-1" d="m698.53 607.25 25.83.12.11-50.03h7.63l-.01-25.93.01-7.41v-7.41h-7.63v-7.4h-17.26v-7.41h9.51v-7.41h.11v-.19h8.3l-.11-10.28 7.08-.11v-11.65l7.79-.22-.15-7.18h7.64v-7.41h7.64v-8.86l30.87-.17-.32-35.42v-7.41h-7.64v-7.41h-30.55v-7.41h-7.64v-7.41h-7.64l-7.63.19-22.92-.19h-7.64v7.41h-7.63v-7.41h-7.64v-14.81H671v-14.82h-7.64v-14.82h-7.63v-29.63h7.63v-7.41H671l-.1-22.23h-53.36l-8.43-.05v15.81l-12.28.09v-15.85h-17.48v-22.87h-38.19v22.87h-18.18v15.4h-11.45v-15.4h-54.38l-7.58.15-.06 22.08h7.64v7.41h7.64v29.63h-7.64v14.82h-7.64v14.82h-7.64v14.81h-7.63v7.41h-7.64v-7.41h-7.64l-22.91-.03-7.64.03h-7.64v7.41h-7.64v7.41h-30.55v7.41h-7.63v7.41l.05 36.14h30.76l-.26 8.31h7.63v7.41h7.64l.2 7.39 7.44.01v14.82l10.97.21v7.41h9.02v7.41l6.96.16v7.41l-19.31-.37v7.4h-7.64v37.05l7.64.14.22 54.05h26.78l-.44-13.57h8.52l-.2-6.9 8.96-.22.16-8.27 47.65-.01v11.82h-7.64v22.22h7.64v14.82h7.64v8.44h7.63v9.32h15.28l.26-9.32h13.5l-.15-12.16 9.25-.14.05 8.57 41.56.01.14-9.27 9.2.03.13 13.8h10.07v9.5h15.28v-9.17h7.64v-9.61h7.63V612.9h7.64v-22.22h-7.64l.39-11.54 49.44-.01-.19 7.6 9.08.22-.11 8.65"/><path class="cls-1" d="M619.97 293.92H654v7.26h-7.48v14.53h-7.49v21.79h7.49v14.53H654v14.53h7.49v14.53h7.49v14.53h7.49v50.85h-7.49v-29.06h-7.49v-14.53h-14.97v-7.26h-22.47v-29.06h-7.49v-7.26H586.6v-14.53h-7.48v-21.79h7.48v-7.27h7.49v-7.26l25.61-.01z"/><path class="cls-1" d="M698.94 395.62h29.95v7.26l7.63-.05-.14 7.32h29.96v7.26h7.49v21.79h-29.96v7.27h-7.49v7.26h-7.49V461h-7.48v7.26h-7.49v14.53h-7.49v7.26h-7.49v7.27h-7.49v7.26h-14.98v7.27h-7.49v7.26h-7.49v7.26h-14.97v7.27h-29.96v-7.27h22.47v-7.26H654v-14.53h7.49v-7.26h7.49v-7.27h7.49v-14.53h7.49v-21.79h7.49v-50.85h7.49z"/><path class="cls-1" d="M676.47 526.37v-7.26h37.45v7.26h7.49v24.45l-7.62-.33-.17 48.53h-7.19v-14.53h-7.49v-7.27h-7.49v-7.26h-14.98v-7.26h-59.91v-7.27h-22.47v-7.26h37.45l.07-7.25 7.42-.02H654v-7.26h14.98v-7.27zM564.14 540.9v-21.79h7.49v-7.26h7.49v-7.27h14.97v-7.26h7.49v-7.27h7.49v-7.26h7.49v29.06h-7.49v7.26h-7.49v14.53h-7.49v7.26h-14.97v13.44h-14.98z"/><path class="cls-1" d="M526.69 482.79v-14.53h7.49v-14.53h7.49V439.2h7.49v-14.53h-7.49v-7.26h22.47v7.26h7.49v7.27h7.49v7.26h7.48v43.59h-7.48v7.26h14.97v-7.26h7.49v-7.27h7.49v-7.26h14.98v21.79h7.49v14.53h-7.49v14.53h7.49v-7.26h7.49v-7.27h7.49v-14.53H654v-14.53h7.49v-50.85H654v-7.26h-7.48v-7.26h-7.49v-7.27h-14.98v7.27h-14.98v7.26h-7.49v-14.53h7.49v-7.26h7.49v-21.8h-7.49v-7.26h-14.98v7.26h-14.97v-21.79h-7.49v-7.26h-22.47v7.26h-7.49v21.79"/><path class="cls-1" d="M564.14 511.85h-7.49v-7.23l-7.49-.04v-7.22l-7.49-.04v-7.27h-7.49v-14.53h7.49v-7.26h7.49v-21.79h7.49v-14.53h7.49v7.26h7.49v7.27h7.49v29.05h-7.49v29.06h-7.49zm-63.51-203.06v-14.87h-33.85v7.26h7.49v14.53h7.49v21.79h-7.49v14.53h-7.49v14.53h-7.49v14.53h-7.49v14.53h-7.49v50.85h7.49v-29.06h7.49v-14.53h14.98v-7.26h22.47v-29.06h7.49v-7.26h29.95v-14.53h7.49v-21.79h-7.49v-7.27h-7.49v-7.26z"/><path class="cls-1" d="M421.85 395.62h-29.96v7.26l-7.28.32-.21 6.95h-29.96v7.26h-7.48v21.79h29.95v7.27h7.49v7.26h7.49V461h7.49v7.26h7.49v14.53h7.49v7.26h7.49v7.27h7.48v7.26h14.98v7.27h7.49v7.26h7.49v7.26h14.98v7.27h29.96v-7.27h-22.47v-7.26h-14.98v-14.53h-7.49v-7.26h-7.49v-7.27h-7.49v-14.53h-7.49v-21.79h-7.49v-50.85h-7.48z"/><path class="cls-1" d="M444.31 526.37v-7.26h-37.44v7.26h-7.49v21.8h7.49l-.65 50.85h8.14v-14.53h7.49v-7.27h7.48v-7.26h14.98v-7.26h59.92v-7.27h22.46v-7.26h-37.44l.11-7.19-7.6-.08h-14.98v-7.26H451.8v-7.27zm112.34 36.33H519.2v7.26h-14.97v14.53h-7.49v29.05h7.49v14.53h14.97v-14.53h7.49v-7.26h7.49v-7.26h7.49v-7.27h7.49v-14.53h7.49zm0-21.8v-21.79h-7.49v-7.26h-7.49v-7.27h-14.98v-7.26h-7.49v-7.27h-7.49v-7.26h-7.48v29.06h7.48v7.26h7.49v14.53h7.49v7.26h14.98v13.44h14.98z"/><path class="cls-1" d="M526.69 482.79h-7.49v-7.27h-7.49v-7.26h-14.97v21.79h-7.49v14.53h7.49v14.53h-7.49v-7.26h-7.49v-7.27h-7.49v-14.53h-7.49v-14.53h-7.49v-50.85h7.49v-7.26h7.49v-7.26h7.49v-7.27h14.98v7.27h14.97v7.26h7.49v-14.53h-7.49v-7.26h-7.48v-21.8h7.48v-7.26h14.98v7.26h14.98v-21.79h7.49v-7.26h22.47v7.26h7.49v21.79M556.65 585.1h7.49v13.92h7.49v22.14h-22.47v-22.14h7.49zm12.52-291.18h17.52l-.09 13.92h-7.48v7.26h-7.49v21.79h-22.47V315.1h-7.49v-7.26h-7.49v-13.92l18.11-.01-.37-22.8h16.88zM691.42 595.6l7.12.14.1 9.64M201.86 391.8v-10.88m22.4 141.3v-10.87m22.37 217.38v-32.61m22.36-434.76v-10.87m89.51 543.45V772.2m335.62-21.75v-21.74m33.56-21.74v21.74m-358-554.3v10.87m413.94 499.96v-10.87M794.8 217.9v10.87h11.19v32.61H794.8m111.88 173.89V424.4m11.19 0-.01-10.86m11.2 10.86-.02-10.86m11.19 43.47v-10.87m-11.19-54.34v10.87h-11.18v10.87m-11.19-21.74h-22.36v10.87h-11.19v10.87h11.19v-10.87h22.36V391.8m123.07 0h22.36v10.87h-22.36zm22.36 10.87h11.19v10.87h-11.19zm55.95 163.03h-33.57v-10.87h-11.19v-10.87h-11.17v-32.61h-11.19v-43.47h-11.19v-32.61h-11.19V424.4h-11.18v108.69h11.18v21.74h11.19v10.87h-11.19"/><path class="cls-1" d="M1007.37 402.67v10.87h-11.19v32.6h-11.19v10.87H973.8v21.74h-11.19v-21.74h-11.19v-10.87h-11.19v-32.6h-11.19v-10.87h22.38V391.8h33.57v10.87zm-44.76 97.81h11.19v10.87h-11.19z"/><path class="cls-1" d="M1018.55 554.83v54.34h-11.18V598.3h-11.19v10.87h-11.19v21.74H973.8v21.73h-11.19v-21.73h-11.19v-21.74h-11.19V598.3h-11.17v10.87h-11.19v-54.34h11.19v-97.82h11.17v21.74h11.19v76.08h11.19v10.87h11.19v-10.87h11.19v-76.08h11.19v-21.74h11.19v97.82zM895.49 674.37h11.19v21.74h-11.19z"/><path class="cls-1" d="M906.68 696.1h11.19v10.87h-11.19zm-33.56-43.46v-10.86h11.19m-55.95-76.08h33.57v-10.87h11.19v-10.87h11.19v-32.61h11.18v-43.47h11.19v-32.61h11.19V424.4h11.19v108.69h-11.19v21.74h-11.19v10.87m-89.51 195.63h11.19v10.87h-11.19zm201.38-347.79h11.19v10.87h-11.19zm11.19-32.61v10.87h-44.75v-10.87H973.8v-10.87h-11.19v10.87h-11.19v10.87h-44.75v-10.87h33.56v-21.74h-11.19v-10.87h-11.18v-21.73h11.18v10.87h11.19v10.86h11.19v10.87h33.57v-10.87h11.19v-10.86h11.19v-10.87h11.18v21.73h-11.18v10.87h-11.19v21.74zM224.26 706.99v10.87h-22.38v-10.87h-11.19v-10.87h-22.36v-10.87h-22.38v-10.87h-11.19v-10.87m123.05-532.57v97.81h-11.19v-21.73h-11.19v-10.87h-11.19v-21.74h-11.19v-21.73h11.19v-10.87h11.19v-21.74h-11.19V109.2h-11.19V98.33h-11.19V87.46m123.06 130.43h-22.36v10.86h-11.19v10.87h-11.19v10.87H269v-43.47h11.18v-54.34H269v-21.74h-11.19V98.33h22.37v21.74h11.19v21.74h22.38v-21.74h11.17v21.74h11.19v43.47h-11.19v21.74m-67.11 32.6v32.61h-11.19v32.6h-11.19V283.1h-11.19v-43.48h11.19v10.87h11.19v-10.87zm78.3 32.61v10.87h-44.74v10.87H269v10.86h-11.19v-32.6H269v-10.87h44.75v10.87zm-100.68 65.21v32.61h-11.19v10.87h-22.38v-10.87h-22.37v-10.87h-11.18v10.87h-22.37v10.87h-22.38v-10.87h-11.19v-32.61h33.57v-32.61h55.92v32.61z"/><path class="cls-1" d="M179.49 391.8v21.74l.01 10.86h-11.17l-.02-10.86V391.8h-11.18v-10.88h11.18v-10.87h11.18v10.87h11.19v10.88zM34.07 380.92v-10.87h11.17v-10.87H78.8v10.87h11.19v21.75h11.19v21.74h11.19l.02 10.86h11.18l-.01-10.86h22.38l.01 10.86h11.19v43.48h-11.19v43.47h11.19v10.87h-22.38v-10.87h-22.37m78.29-119.55h11.19v21.74h-11.19zm-11.18 32.61h11.19v43.47H179.5zm-22.36 43.47v43.47m11.19 10.87h11.17v10.87h-11.17zm123.06-10.87v10.87h-33.57v10.87h-11.19v10.87h-33.56v-10.87h11.19v-10.87h11.18v-10.87h11.19v-10.87h33.57v10.87zm-33.57 76.08v10.87h-22.38v-10.87h-33.56V565.7h-11.19v-21.74h22.38v10.87h11.19v10.87h22.37v21.73zm-134.25-65.21h11.19v10.87h-11.19zm44.76 43.48v-10.87h11.17v21.74h-11.17v10.86h-11.19v21.74h-22.38V598.3h11.19v-21.73h11.19V565.7m33.55 0H179.5"/><path class="cls-1" d="M213.07 598.3h-11.19v21.74h-11.19v-10.87H179.5V598.3h11.19v-32.6M682.93 76.61v21.74h-11.19v21.73h-22.38v-10.86h11.19V76.61h-11.19V65.74h-11.19V54.87h-22.38V44h44.76v21.74h11.19v10.87z"/><path class="cls-1" d="M626.98 33.14h44.76V44h11.19v10.87h-22.38m-89.49 21.74h-11.19v10.87m290.87 141.29V217.9h-22.38v-10.87h-22.37v-10.87h-22.38V185.3h-11.19v-10.87h-11.19v-10.87h-22.36v-10.87h-22.38v-10.87h-22.37v-21.74h22.37v-10.86h11.19V98.35h11.19V87.48h11.19V76.61h55.93v21.74h-22.38v10.87h-11.19v10.86h11.19v10.87h22.38v-10.87h44.75v32.61h-33.57v10.87h-11.18v10.87h11.18v10.87h44.76v10.86h11.19v10.87h22.37v10.87h22.37M559.87 87.48v10.87h-11.19v10.87h-11.19V87.48z"/><path class="cls-1" d="M559.87 87.48h11.19V54.87h33.56v10.87h-11.19v10.87h-11.18v32.61h-33.57m-145.44 32.59v10.87h-11.19m-11.18 10.86v10.87h-11.19m11.19-10.87h11.18v-10.86m-22.37 32.6v-10.87M470.36 65.74V54.87h-11.17V44h22.36v10.87h11.19v21.74h11.18V65.74h22.38v10.87h-11.19v21.74h-11.19v10.87h-33.56v10.85h-11.17v21.74h11.17m-11.17 97.81H448v-10.87h-11.19v-10.86h-67.13v10.86h-44.76v-10.86m-55.93 43.47h-11.18m0 65.21h-11.19m-11.19 43.48h11.19v21.75h-11.19zm693.61 43.49h-11.18M134.75 391.8v10.87h-11.19v10.87h-11.19V391.8zm783.12 32.6h-11.19m33.55 0h-11.17m11.17 10.87h-11.17m11.17 10.87h-11.17"/><path class="cls-1" d="M190.69 424.4h11.19l-.02-10.86h22.38l.02 10.86h11.18l-.01-10.86h11.19V391.8h11.19v-21.75H269v-10.87h33.56v10.87h11.19v10.87m-89.49 141.3h-11.19m604.1 32.61h11.19v10.87m-55.92 130.4h-11.19m-44.76 21.74h22.38m179-10.87h11.19v10.87h-11.19zm-671.24 21.76h11.19l11.19-.02m436.29 10.87h-22.37m-391.54 21.75h55.92m-44.75 10.87h55.94m0 10.87h-44.75m0-184.77v86.95h-11.19v65.21H280.2v-10.87h-11.19v-43.47h11.19v-10.87h11.19v-54.34h11.17V598.3zm33.56 65.21h11.19v10.87h-11.19zm33.57-21.73v43.47h-11.19v-21.74H358.5v-10.87h11.19v-10.86zM235.44 750.46v-21.73h11.19v10.86h11.19v10.87m-22.38 0h33.57m-55.94-65.21h11.19v21.74h-11.19zm223.74-663v32.62h-11.19V33.14h-22.38v21.73h-44.75V33.14h-22.38v21.73h-44.74l-11.19-.01V33.12h-22.37v21.74h-44.76V33.12h-22.37v21.74h-44.74V33.12h-22.38v21.74H78.8V33.12H56.43v10.87h11.19v21.74H45.24V54.86H34.05v21.73h22.38v43.48H34.05v21.74h22.38v43.47H34.05v10.87l.02 10.87h22.36v43.47H34.07v21.74h22.36v43.47H34.07v21.74H22.88v-32.61h22.36V283.1H22.88v-43.48h22.36v-21.73H22.88v-43.48h22.36v-21.73H22.88V109.2h22.36V87.46H22.88V22.24h67.11v21.75h22.38V22.24h44.76v21.75h22.36V22.24l11.19.01h33.56v21.74h22.38V22.25h44.75V44h33.55V22.25h44.76V44h22.37V22.25zm78.32 760.82h11.19v10.87h-11.19z"/><path class="cls-1" d="M1152.8 848.27V.54H.5v847.73m11.21-10.36V11.5l1129.72-.56h1.43v826.21"/><path class="cls-1" d="M615.81 761.33H627v21.74h-11.19zM627 783.07h22.38v10.87H627z"/><path class="cls-1" d="M649.38 804.8v10.87h-33.57V804.8h-11.19v-10.86h-33.56v-32.61h33.56v21.74h11.19v10.87H627v10.86zm44.74-10.86v21.73h-22.37V804.8h-11.18v-76.09h11.18v10.87h11.18v10.87h-11.18v32.62h11.18v10.87zm11.18-108.7h11.19v10.87H705.3z"/><path class="cls-1" d="M694.12 696.1h11.19v10.87h-11.19zm22.37 0h22.38v10.87h-22.38zm-11.19 10.87h11.19v21.74H705.3zm33.57 0h11.19v21.74h-11.19z"/><path class="cls-1" d="M1142.84 837.15V10.94h-1.43L11.69 11.5v826.41m11.19-533.08h22.33v-21.74H22.88v-43.47h22.33v-21.74H22.88v-43.47h22.33v-21.74H22.88V109.2h22.33V87.46H22.88V22.27h67.11v21.72h22.38V22.27h44.76v21.72h22.36V22.27h44.72v21.72h22.38V22.27h44.75V44h33.55V22.27h44.76V44h22.38V22.27h44.78v32.6h-11.19V33.13h-22.41v21.74h-44.72V33.13h-22.38v21.74h-55.92V33.12h-22.38v21.73h-44.76V33.12h-22.37v21.73h-44.74V33.12h-22.38v21.73H78.81V33.12H56.43v10.87h11.19v21.73H448v10.87H78.81v260.85H67.62V65.72H45.21V54.85H34.05v21.74h22.38v43.48H34.05v21.73h22.38v43.47H34.05V207h22.38v43.48H34.07v21.79h22.36v43.47H34.07v21.74H22.88Zm167.8-65.21v43.47h-11.19v-32.6h-11.17v-10.87h-11.19v-10.87h-11.19v-10.87h-11.19v-32.61h11.19v-10.86h11.19v10.86h-11.19v10.87h11.19V207h11.19v10.87h11.17v21.74Zm-167.8 750v-32.63h22.38v-21.72H22.88v-43.49h22.38v-21.75H22.88v-43.22h22.38v-22H22.89v-43.47h22.37v-21.75H22.89v-43.48h22.37v-21.73H22.89V630.9h22.37v-21.73H22.89v-43.48h22.37v-21.74H22.89v-43.47h22.37v-21.74H22.89v-43.47h22.37v-21.74h11.17v32.61H34.07v21.73h22.37v43.48H34.07v21.74h22.37v43.47H34.07v21.71h22.37v43.5H34.07v21.74h22.37v43.47H34.08v21.74h22.36v43.49H34.08v21.74h22.36v43.51H34.07v21.72h22.37v32.62m22.38-250v-10.9H67.63v-43.47h11.19v-10.87h33.57v10.87H78.82v32.61h22.39v32.6h-11.2v10.87H67.63v-10.87h22.38v-10.87Zm391.56 141.26h-44.76v-10.87h44.76Zm0-32.6h-11.17v-10.87h-22.4v10.87h-11.19v10.87h-11.17v43.47h11.17v10.87H448v10.87h-44.74v-10.87h-33.57V804.8h-22.37v-10.87h-33.57v-10.87h-11.19v-10.87h-11.17v-10.86h-11.18v-10.87h-11.2v10.88h-33.56v-10.88h-44.76v-10.87h-22.36v-10.87h-11.19v-10.87h-11.19v10.87h-22.37v10.87h-11.19v10.87h11.19v10.88h-22.37v-32.62h11.19v-10.87h33.56v-10.87h-11.2v-10.87h-11.18v-43.47h11.18v10.87h44.74v10.87h22.38v10.89h11.19v-21.76h-11.19V630.9h-11.19v-10.86H179.5v-10.87h-11.17v10.87h-33.57v10.86h-11.18v-54.34h11.18v-10.87h-22.37v-10.87H90.01v-10.87H78.82v-10.86H67.63v-10.82h11.19v-10.92h33.57v-21.74h-11.18v-43.47h-11.2V424.4H78.82v-21.74h-11.2v-10.87H56.43v-10.88H34.07v10.88H22.88v-21.75h11.19v-10.87h11.14v-10.9h33.6v10.9h11.18v10.87h11.22v-32.6h11.19v-10.87h22.38v-21.74h11.19v-10.87h55.93v10.87h11.18v21.74h22.38v10.87h11.19v-32.61h-11.22v10.87h-11.22v-32.61h-11.16v-54.34h-11.18v-10.87h22.34v10.87h11.19v-21.74h-11.19v-10.86h-11.16v-21.74h-11.18v-21.74h-11.19V141.8h-11.19v-10.87h33.56v10.87h11.16v-21.73h-11.16V109.2h-11.18V98.33h-11.19V87.46h44.75v10.87h11.19v21.74h11.19V98.33h22.4v21.74h11.18v21.73h22.38v-21.73h11.17v-10.86h11.17V98.34h11.19v10.87h-11.19v32.59h11.19v54.35h-11.19v10.86h-11.19v10.87h22.38v-10.87h22.38v-10.86h33.53v-10.88h78.31v10.87h22.38V207h11.21v32.61h-11.18v-10.86h-11.19v-10.87h-22.38v-10.87H448v10.87h11.21v32.61H448v-10.87h-11.19v-10.87h-44.75v10.87h11.15v10.87h11.19v43.47h-11.19v-10.87h-11.15v-10.82h-11.19v-10.91h-67.12v10.91h22.36v10.86h11.19v21.74h-11.19v-10.91h-44.74v10.87H269v10.87h-11.19v21.74h-11.19v32.6h11.19v-10.87H269v-10.9h33.56v10.9h11.19v10.87h11.17v21.75h-11.17v-10.88h-22.38v10.88h-11.16v10.87H269v21.74h-11.18v21.74h-11.18v43.47h-11.19v21.74h11.19v-10.87h11.18v-10.87h55.93v10.87h11.19v10.87h-11.19v10.92h-11.19v10.87h-11.17V544h-11.18v10.87h-33.57v10.87h22.37v21.74h11.2v32.61h-11.2v-10.92h-44.75v-10.9h-11.19v21.74h11.19v43.47h11.19v32.6h11.19v-43.44h11.18v10.87h11.19v21.76h11.2V630.9h11.19v-32.63h11.17v-10.84h11.19v-10.87h33.57v10.87h-11.2v43.47h11.19v32.61h11.19v-10.87h11.18v-10.87h11.19v43.5h-11.19V707h-11.18v21.74h-11.19v32.61h11.19v10.86h11.18v21.74h11.19v10.87h11.19V696.11h11.19v21.74h22.36v-10.87h33.59v10.87h11.19Zm-402.75-250v-65.19h11.19v65.21Zm1018 282.57-11.19 108.7V598.27h11.19v184.78m-55.89-97.78v-10.91h-22.37v10.91h-11.16v-10.91h11.19v-10.85h33.56v10.85h11.19v54.35h-11.19v10.86h-55.94v-10.86h44.75v-10.87h11.19v-32.57Zm100.69-206.49h-22.38v21.74h22.38v32.61h-11.22v-21.78h-22.38v-43.48h22.38v-21.73h11.19Zm-559.37 163v21.74h44.75v10.85h33.57v10.9h11.19v10.87h11.19v-10.87h22.36v-21.76h11.19v-10.87h44.75v10.87h11.15v21.76h11.19v-10.91h22.41v10.91H806v-21.76h22.36v-10.87h11.19v-10.87h11.19V630.9h11.19v-10.86h11.19v-21.77h11.19v-10.84h-44.76v-10.87h-11.19v-10.87h-11.15v-21.74h11.18v10.87h33.57v-10.87h11.19v-32.6h11.16v-43.48h11.19v-32.6h-11.19v10.87h-67.1v-10.87H806V424.4h11.21v-10.87h11.18v-10.87h11.19v-10.87h11.19v-10.86h22.38v-10.87h33.55v-10.87h-11.2v-10.87h-11.19v-54.34h-11.19v-21.71h-11.19v-10.9h-11.19V250.5h-11.19v-10.87h-11.19v21.74h11.19v54.34h-11.19v21.74h-11.15v10.87h-11.22v10.87h-44.78v-10.87h22.4v-10.87h11.19v-21.74h11.19v-21.73H794.8v10.87h-22.38v-10.87h11.19v-32.61h11.19v-32.6h-11.19v-21.74h-11.19v54.34h-11.21v10.9h-33.53v-10.9h11.19V217.9h-11.19v-10.87h-11.19v10.87h-11.18v10.87h-11.19V217.9h11.19v-21.74h-11.19v-10.89h-11.19v-10.85h-11.19v-10.87h-22.38v-10.86h-55.92v-10.87H470.36v10.85h11.19v21.74h-11.19v-10.87h-11.15v-10.87h-22.4v10.87h-22.38v10.87h-22.37v10.86h-33.57v-10.86h11.19v-10.87h11.19v-10.87h11.19V141.8h11.15v-32.59h-11.15V98.34h11.15v10.87h11.19v21.72h22.41v-10.86H448v-10.86h11.21V98.34h11.17V87.47h11.19V65.74h-22.36V54.87H448V44h33.55v10.87h11.19v21.74h11.19V65.74h22.37v10.87h-11.19v21.73h-11.18v10.87h22.37V87.47h11.19V76.61h22.38V65.74h-11.19V54.87h-11.19V44h11.19V33.13h11.19V22.27h33.57v10.86h11.18V44h11.18V33.13h11.19V22.27h44.75v10.86h22.38v21.74h-11.19v10.87h22.38v10.87h11.18v21.73h11.19V76.61h22.38V65.74h67.15v32.6h-11.22v10.87h44.75v10.87h11.19v10.87h11.19v10.87h-11.19v10.87h-11.19v10.86h-33.53v10.87h44.75v10.85h11.19v10.87h22.38v10.87h22.36v-10.85h11.19v-10.89h11.13v21.74h-11.16v10.87h-11.19v10.89h-67.12v10.86h11.19v10.87h11.19v10.87h11.19v32.61h11.19v-10.87h11.17v-10.84h11.19v10.87h11.19v10.87h11.16v10.87h11.19v21.73h11.21v32.61h11.19v-32.64h11.19v-21.73h11.22v-10.87h11.19v-10.87h11.19v-10.84h11.18v10.87h11.19v10.87h11.18v54.34h-11.18v10.87h-11.19v10.87h33.55v10.87h22.38v10.86h11.19v10.87h11.19v10.87h11.13v10.87h11.19v10.84h-22.38v10.87h-55.93v-10.87h-11.19v32.6h11.19v43.48h11.17v32.6h11.19v-86.94h11.19v86.94h-11.19v10.87h33.57v-10.87h11.19v21.74h-11.19v10.87h-11.19v10.87h-44.74v-10.87h-11.19v-10.87h-11.19v54.35h-11.18v10.86h-11.19v-21.73h-11.13v21.73h-11.19v21.74h-11.19v10.87h-11.22v-10.87h-11.19V630.9h-11.21v-21.73h-11.15v21.73h-11.19v-10.86h-11.18v-54.35H895.5v10.87h-11.19v10.87h11.19v32.61h-11.19v54.32h11.19V630.9h11.19v21.74h11.18v10.87h11.19v10.85h11.15v10.91h11.19v10.87h11.21v21.74h11.19v43.39h-11.19v-10.83h-33.55v-10.87h-22.37v-10.86H895.5v-10.87h-11.19V696.1h-11.19v-43.46h-11.19v10.87h-11.19v21.76h11.19v21.7h11.19v10.87h-11.19v-10.87h-11.19V696.1h-11.19v-21.74h-11.19v10.91H806v43.48h11.21v-10.91h11.18v10.87h11.19v10.86h11.19v54.36h-11.22v10.87h-11.19v-10.87H806v-32.6h11.21v-10.89H806v-21.73h-11.19v10.86h-11.18v10.87h11.18v32.62h-11.18v10.87h-33.57v10.87h11.15v10.87h11.19v10.87h-33.53v-10.87h-11.19V804.8h-11.19v-10.87h-11.18v21.74h-11.19v10.87h-22.36v-10.87h-22.38v10.87h-33.57v-10.87h-11.19V804.8h-33.56v10.87H548.7v10.87h-33.57v-10.87h-11.19V804.8h-11.19v-10.87h-11.19v-32.6h11.19v-21.74h11.19v10.87h11.19v10.87h11.19v10.86h22.38v21.74h11.17v-32.6h11.19v-10.87H548.7v-10.87h-11.19v-10.87h-11.19v-43.45h11.19v10.86h33.55V707h11.15v32.6h-11.19v10.87h33.56v-10.9h-11.14v-21.73h11.18v-10.87h33.59v10.87h11.19v10.87h11.19V696.1h-44.78v-10.83h-22.37v-10.91h-41.83V630.9h8.26m436.34-521.63v10.85h11.19v10.87h11.19v65.21h-11.19v21.74h-11.19v10.83h-11.19v10.86h-22.41v10.87h-78.3v-10.87h44.74v-10.86h22.37V217.9h11.19v-43.48h-11.19v-10.87h22.38v10.87h11.19v21.74h11.22v-43.47h-11.19v-21.74h-11.19v-10.87h-44.78v10.87h-11.19v-21.68h11.19V98.36h44.75v10.91Zm134.25-21.74h-22.38v21.74h22.38v43.46h-22.38v21.73h22.38v43.48h-22.38v21.73h22.38v43.48h-22.38v21.74h22.38v43.47h-22.38v21.74h22.38v32.6h-11.25v-21.77h-22.38v-43.48h22.38v-21.74h-22.38v-43.44h22.38V250.5h-22.38v-43.47h22.38v-21.76h-22.38v-43.45h22.38v-21.74h-22.38V76.62h22.38V54.88h-11.19v10.87h-22.38v304.31h-11.19V76.62H828.36V65.74h257.31V44.02h11.19V33.15h-22.38v21.73h-44.74V33.15h-22.37v21.73h-44.76V33.15h-22.4v21.73H895.5V33.15h-22.38v21.72h-44.76V33.13h-22.37v21.74h-44.78V33.13h-22.34v21.74h-33.56V44h22.37V22.27h44.74V44h22.38V22.27h44.75V44h22.38V22.27h44.74v21.75h22.38V22.27h44.75v21.75h22.41V22.27h44.75v21.75h22.36V22.27h67.14Z"/><path class="cls-1" d="M459.19 130.94h11.17v10.87h-11.17zM134.76 533.09h22.38v10.87h-22.38zm0 0v10.87"/><path class="cls-1" d="M157.14 554.83h-44.75v-10.87H101.2v-21.74m615.29 239.11h11.19v10.87h-11.19zm0 21.74h11.19V772.2h11.19v10.87h11.19v10.87h-33.57m-358 10.86.01-10.86M190.68 380.91h11.18m-44.73.01h-11.19v10.88h-11.19m436.31 413h-11.19v-10.86h11.19m-111.87-54.35 11.18-.01m-11.18.01v-10.88l-22.38.02v10.86m0 0-11.19.01v10.86h-11.17v10.87m0 43.47h-11.36v-43.47h11.36m0 43.47v10.87h11.17m-67.12-32.6h11.19m-33.56-32.61v43.48m11.18-32.61v32.61h22.38m-44.75 0v-43.49m-11.19.01v32.61m33.56-54.34h-11.18v21.73h-22.38m22.38 0 11.19-.01m-.01-86.94h-11.18v-32.6m-22.38-43.48h11.19v43.48h11.19m33.56 54.34-11.2-.01.01 21.75h-11.19v21.74m-33.56-141.31v10.88m0 86.95v65.21h-11.19m0 21.74v-21.74m-11.18-.01.01 10.88m-33.57-97.82v32.61m-11.19-21.74h22.38m-23.63 10.86 23.63.01m0 0v10.87m0 0h-22.38m11.19 0v43.47m0 0h11.19v10.87m-33.57-32.6h11.19m-22.37-10.87 11.18-.01v21.75m-11.18-10.87h11.18m-78.31-32.61.01 10.87h11.19v10.86l22.36.01v10.86l11.19.01v10.87h33.56m-78.3-10.87 11.19-.01v10.88m0 0 22.36-.02v10.88m44.75 0h-44.75m-87.76-217.37h9.46m134.24 21.74v10.87h-22.37m346.8 239.11v10.86m33.56-65.22 11.19.01v10.86m-11.19-32.61v21.74m0-21.74h33.57m-33.57 32.61h11.19v10.88h-11.19zM627 761.33v-10.87h22.38v10.87m11.19 0H627m22.38 0v21.74m0 0h11.19m-11.19 21.73h11.19m-22.38-86.96v10.89l11.19-.02"/><path class="cls-1" d="M660.57 739.59h-11.19v-10.88m89.49 43.49h11.19m-11.19-10.87v10.87m11.19 0v10.87h33.56m0-32.62v32.62m-11.19-43.49v10.87h11.19m0-21.74v10.87h-11.19m-22.37-76.07H705.3m44.76 0v21.73m-44.76-21.73v21.73m33.57 0h-22.38m44.76 21.73v-21.73h-22.38m-33.57 0h-11.18v10.86m100.69-10.86h-22.38m11.19 43.47h11.19"/><path class="cls-1" d="M750.06 706.97V696.1h-11.19m0 32.61h-22.38m0 10.87h22.38m-44.75-43.48h-22.37m0 32.61h11.18m11.19 0h-11.19m0 10.87v-32.61h11.19v21.74h11.18v10.87m55.95-32.61h-11.19m-11.19 21.74v10.87m0 10.87v-10.87h11.19v-10.87h11.19v-21.74h11.18V696.1h11.19v32.61h-11.19v10.87h-11.18v10.87h11.18v21.75h-22.37v-10.87h-11.19m-11.19-10.88h11.19v10.88h-11.19"/><path class="cls-1" d="m694.12 750.45 11.18.01v-10.88h11.19v10.88l11.19-.01v10.88m89.49-532.56v10.87h11.19m-33.56 97.82h11.19v-21.74m-11.19 21.74v10.86h-11.19m0 0v10.87m22.38-65.21h11.18v21.74h-11.18m-11.19-21.74v-32.6m-11.19 32.6h11.19m22.37-65.21h33.57m-22.38-10.87v21.74m11.19 0v-10.87m0 10.87h11.19m0 0v10.87m0 0h11.19m0 0v10.87m11.19 0h-11.19m11.19 0v10.86m0 0h11.19m78.3-32.6h-33.57m-190.17 32.6v-10.86m0 0h11.19V217.9h-11.19m0 0v-10.87h-11.19m-11.19 0v-10.87H705.3m0 0V185.3h-11.18v-10.86l-11.19-.01v-10.87h-11.19v-10.87h-22.38m44.76-21.74h-33.57v10.87h33.57m0 0v10.87h22.37m0 0v10.87h22.38m44.74 32.6h-10.55v10.87h-11.83V185.3h-11.17v-10.86h-11.19v-10.88m178.99 43.47v10.87m-111.87-97.82v-10.86h-22.38v10.86m-67.12-21.73v10.87m0 0h-22.37m0 0v10.86h-11.19m123.06 0h-22.38m145.43 0v-10.85h44.76m0 0v10.85h22.38m0 0v10.87h11.19m-.01 0v65.21m.01 0h-11.19v21.74m0 0H973.8v10.87h-11.19v10.87m58.7 608.63h-11.18v10.86h-11.18V870h-67.14v-10.86h-22.37v-10.87h-11.23v-10.86h-11.15v-21.74h-11.19V739.6h11.19v43.46h11.15v21.74h11.19v10.87h44.81V804.8h11.19v21.74h-11.19v10.87h-22.4v10.86h44.76v-10.86h22.38v-10.87h11.18v-43.48h-11.18v-10.87h22.36v10.87h11.19v43.48h-11.19Zm-134.25-32.6v-32.6"/><path class="cls-1" d="M1010.13 783.07h11.17v43.47"/><path class="cls-1" d="M1021.3 826.54h-11.17v21.74m0 0h-11.19v10.87m0 0h-67.13m0 0v-10.87h-22.38m0 0v-21.74h-11.18v-10.87h-11.19m-752.3.01h11.17v-10.87h11.19v-10.87h67.09v10.87h22.38v10.87h11.19v10.87h11.18v21.72h11.25v76.07H269v-43.45h-11.18v-21.74h-11.19v-10.88h-44.76v10.87h-11.19v-21.73h11.19v-10.86h22.34v-10.87H179.5v10.87h-22.38v10.86h-11.19v43.48h11.19v10.87h-22.36v-10.87h-11.19v-43.48h11.19ZM269 848.29v32.6"/><path class="cls-1" d="M145.93 880.89h-11.18v-43.47m0 0h11.18v-21.74m0 0h11.19v-10.87m0 0h67.13m0 0v10.87h22.38m0 0v21.74h11.18v10.87H269m514.61-652.13v10.87h11.19v10.87h-11.19m11.19 0h11.19v10.87h11.18V217.9h11.19M716.49 98.35h-22.37v10.87h-11.19v10.86h-11.19m-44.76 0v21.74h-33.55m-11.18-32.6v10.86h11.18m44.74-54.34v10.87h11.19m-33.57 10.87v10.87h11.19V87.46zm33.57 21.74h-55.93v10.86h55.93m-55.93-43.47v32.61h-11.18m22.37-43.48v10.87h-11.19m44.74-10.87h-33.55m0-21.74h-22.37V33.14h-11.19v21.73m-33.57 54.35H526.3m100.68-76.08V44m-22.36 0v10.87h11.17m33.57 21.74v32.61m-234.93 21.72v10.87h-11.19m111.87 86.94h-11.19v-10.86h-11.18m-22.38-10.87h22.38v10.87M448 196.15h22.36v10.87m-78.31 21.74h-22.37m-33.57 32.6v-10.87h44.76v10.87h11.18v10.87h11.19v10.87h11.19m-89.51-54.35h-22.36v10.87h-11.19v10.87h-11.19v10.87m67.12 32.61h-11.19m0-10.87v10.87m-89.49 21.73h11.19v-10.87h-11.19m-33.57 21.74v10.87m0-10.87h-11.19m33.57-97.81v10.86m11.19-10.86v10.86m11.19 10.87H269m-33.57-10.87h11.19m0-10.86h-11.19m22.38-10.87h11.18m.01-10.87v-54.34m134.24 43.47H448v10.87M134.75 326.57h11.19m-11.19 0v10.87m-22.38 32.61h-11.19m33.57 21.75v-10.89m-22.38 10.89v-21.75m123.06 21.75v21.74h-11.19m0 0v-11.56h-11.19V391.8m0-10.88v10.88h22.38m-55.94 21.74h11.19l.01 10.86m-22.38-10.86h-11.19m-11.18-21.74h11.19v21.74m-11.19 0V391.8m-44.76 0h11.19m-11.19-21.75v21.75m89.51 76.08v43.47m0-43.47 11.17-.01.02 43.48h-11.19m-33.55 0h11.17l.02 10.87m22.36 0v-10.87H179.5v10.87m-22.36-97.82h11.19l-.02 43.47-11.17.01m-11.2-54.34h11.19l.01 10.86m78.3 86.95h-22.37v21.74h-22.38v10.87h-33.55v21.74h11.19m11.17-43.48h33.57m-55.93 0h11.19m-44.76-10.87v10.87h-11.18v-10.87m458.67 130.43v-10.89m111.87 119.56h11.19v21.75h22.37v10.87m-33.56-32.62v32.62m-11.18-86.97v32.61m11.18 54.36h33.56v10.87m-11.19 0h-11.18m100.69-108.7v43.47m100.68-293.44h11.19m0 130.43h11.19m78.31-119.56v10.87m0 0h-11.19m-44.76 0h11.19m0 0v21.74h11.19m0 0v10.87h11.19v-10.87m11.19 10.87H973.8v10.86h11.19m-33.57-10.86h11.19v10.86h-11.19m167.82 54.35h-11.19m0 0v10.87m-78.31-141.29v10.86m0-65.21h-33.56m-89.51 0h33.56m89.51 0v10.87m-22.37 21.74h11.18v10.87m0 0h-11.18v10.86m-22.38 32.61v21.74H973.8m33.56-32.61h-11.18m11.18-21.73-11.18.02m11.18 10.84h-11.18m-89.5-10.87-11.19.03v10.84m-306.33 666h-37.44v-7.26h-14.98v-14.53h-7.49v-29.06h7.49v-14.53h14.98v14.53h7.49v7.27h7.49v7.26h7.49v7.27h7.48v14.52h7.49z"/><path class="cls-1" d="m454.77 1056.72-25.82-.12-.11 50.03h-7.64l.01 25.93-.01 7.4v7.41h7.64v7.41h17.25v7.41h-9.51v7.41h-.11v.18h-8.3l.11 10.29-7.08.1v11.65l-7.79.23.15 7.18h-7.64v7.41h-7.63v8.85l-30.88.17.33 35.43v7.41h7.63v7.41h30.55v7.41h7.64v7.4h7.64l7.64-.18 22.91.18h7.64v-7.4h7.63v7.4h7.64v14.82h7.64v14.82h7.64v14.82h7.63v29.63h-7.63v7.41h-7.64l.1 22.22h53.36l8.43.06v-15.81l12.28-.09v15.84h17.48v22.88h38.19v-22.88h18.19v-15.39h11.44v15.39h54.38l7.58-.15.06-22.07h-7.64v-7.41h-7.64v-29.63h7.64v-14.82h7.64v-14.82h7.64v-14.82h7.64v-7.4h7.63v7.4h7.64l22.91.04 7.64-.04h7.64v-7.4h7.64v-7.41h30.55v-7.41h7.64v-7.41l-.06-36.14h-30.76l.26-8.31h-7.63v-7.41h-7.64l-.2-7.39-7.44-.02v-14.81l-10.97-.21v-7.41h-9.02v-7.41l-6.95-.16v-7.41l19.3.37v-7.41h7.64v-37.04l-7.64-.14-.22-54.05h-26.78l.44 13.57h-8.52l.2 6.9-8.96.21-.16 8.28-47.65.01v-11.82h7.64v-22.23h-7.64v-14.81h-7.63v-8.44h-7.64v-9.32h-15.28l-.26 9.32h-13.5l.15 12.16-9.25.14-.05-8.57-41.56-.01-.14 9.27-9.2-.03-.13-13.8h-10.07v-9.5h-15.28v9.16h-7.63v9.62h-7.64v14.81h-7.64v22.23h7.64l-.39 11.53-49.44.01.19-7.59-9.08-.22.11-8.65"/><path class="cls-1" d="M533.33 1370.05H499.3v-7.26h7.49v-14.53h7.48v-21.8h-7.48v-14.52h-7.49v-14.53h-7.49v-14.53h-7.49v-14.53h-7.49v-50.85h7.49v29.06h7.49v14.53h14.98v7.26h22.46v29.06h7.49v7.26h29.96v14.53h7.49v21.79h-7.49v7.27h-7.49v7.26H533.6z"/><path class="cls-1" d="M454.36 1268.35h-29.95v-7.26l-7.63.05.14-7.32h-29.96v-7.26h-7.49v-21.79h29.96v-7.27h7.49v-7.26h7.49v-7.27h7.48v-7.26h7.49v-14.53h7.49v-7.27h7.49v-7.26h7.49v-7.26h14.98v-7.27h7.49v-7.26h7.49v-7.27h14.98v-7.26h29.95v7.26h-22.47v7.27H499.3v14.53h-7.49v7.26h-7.49v7.26h-7.49v14.53h-7.49v21.8h-7.49v50.85h-7.49z"/><path class="cls-1" d="M476.83 1137.59v7.27h-37.45v-7.27h-7.49v-24.44l7.62.33.17-48.53h7.19v14.53h7.49v7.26h7.49v7.27h14.98v7.26h59.91v7.27h22.47v7.26h-37.45l-.07 7.24-7.42.03H499.3v7.26h-14.98v7.26zm112.33-14.52v21.79h-7.49v7.26h-7.48v7.27h-14.98v7.26h-7.49v7.26h-7.49v7.27h-7.49v-29.06h7.49v-7.26h7.49v-14.53h7.49v-7.26h14.98v-13.44h14.97z"/><path class="cls-1" d="M626.61 1181.18v14.53h-7.49v14.53h-7.49v14.53h-7.49v14.52h7.49v7.27h-22.47v-7.27h-7.49v-7.26h-7.48v-7.26h-7.49v-43.59h7.49v-7.27h-14.98v7.27h-7.49v7.26h-7.49v7.27h-14.98v-21.8h-7.49v-14.52h7.49v-14.53h-7.49v7.26h-7.49v7.27h-7.48v14.52h-7.49v14.53h-7.49v50.85h7.49v7.27h7.49v7.26h7.48v7.27h14.98v-7.27h14.98v-7.26h7.49v14.53h-7.49v7.26h-7.49v21.79h7.49v7.27h14.98v-7.27h14.98v21.8h7.48v7.26h22.47v-7.26h7.49v-21.8"/><path class="cls-1" d="M589.16 1152.12h7.49v7.23l7.49.04v7.22l7.49.04v7.26h7.49v14.53h-7.49v7.27h-7.49v21.79h-7.49v14.53h-7.49v-7.26h-7.49v-7.27h-7.48v-29.06h7.48v-29.05h7.49zm63.51 203.06v14.87h33.85v-7.26h-7.49v-14.53h-7.49v-21.8h7.49v-14.52h7.49v-14.53h7.49v-14.53h7.49v-14.53h7.49v-50.85h-7.49v29.06h-7.49v14.53h-14.98v7.26h-22.46v29.06h-7.49v7.26h-29.96v14.53h-7.49v21.79h7.49v7.27h7.49v7.26z"/><path class="cls-1" d="M731.46 1268.35h29.95v-7.26l7.29-.32.2-6.95h29.96v-7.26h7.49v-21.79h-29.96v-7.27h-7.49v-7.26h-7.49v-7.27h-7.49v-7.26h-7.49v-14.53h-7.49v-7.27h-7.48v-7.26h-7.49v-7.26h-14.98v-7.27h-7.49v-7.26h-7.49v-7.27h-14.98v-7.26h-29.95v7.26h22.46v7.27h14.98v14.53h7.49v7.26h7.49v7.26h7.49v14.53h7.49v21.8h7.49v50.85h7.49z"/><path class="cls-1" d="M708.99 1137.59v7.27h37.44v-7.27h7.49v-21.79h-7.49l.65-50.85h-8.14v14.53h-7.48v7.26h-7.49v7.27h-14.98v7.26h-59.91v7.27h-22.47v7.26h37.44l-.11 7.19 7.6.08h14.98v7.26h14.98v7.26zm-112.34-36.32h37.45v-7.26h14.98v-14.53h7.49v-29.06h-7.49v-14.53H634.1v14.53h-7.49v7.27h-7.49v7.26h-7.49v7.27h-7.49v14.52h-7.49zm0 21.8v21.79h7.49v7.26h7.49v7.27h14.98v7.26h7.49v7.26h7.49v7.27h7.49v-29.06h-7.49v-7.26h-7.49v-14.53h-7.49v-7.26h-14.98v-13.44h-14.98z"/><path class="cls-1" d="M626.61 1181.18h7.49v7.26h7.49v7.27h14.98v-21.8h7.48v-14.52h-7.48v-14.53h7.48v7.26h7.49v7.27h7.49v14.52h7.49v14.53h7.49v50.85h-7.49v7.27h-7.49v7.26h-7.49v7.27h-14.97v-7.27h-14.98v-7.26h-7.49v14.53h7.49v7.26h7.49v21.79h-7.49v7.27h-14.98v-7.27h-14.98v21.8h-7.49v7.26h-22.47v-7.26h-7.48v-21.8m22.46-211.27h-7.49v-13.92h-7.49v-22.14h22.47v22.14h-7.49zm-12.52 291.18h-17.52l.09-13.92h7.49v-7.26h7.48v-21.8h22.47v21.8h7.49v7.26h7.49v13.92l-18.11.01.37 22.8H584.5zm-122.25-301.68-7.12-.15-.1-9.63m496.78 213.58v10.88m-22.4-141.3v10.86m-22.37-217.37v32.61m-22.36 434.76v10.87M794.8 870.03v21.74m-335.61 21.75v21.74M425.62 957v-21.74m358 554.3v-10.87M369.68 978.73v10.87m-11.18 456.47v-10.87h-11.18v-32.61h11.18m-111.88-173.9v10.87m-11.19 0 .01 10.87m-11.2-10.87.02 10.87m-11.19-43.47v10.87m11.19 54.34v-10.87h11.18v-10.87m11.19 21.74H269v-10.87h11.18v-10.87H269v10.87h-22.37v10.87M101.2 1261.3h22.36v10.87H101.2zm-11.19-10.87h11.19v10.87H90.01zm-44.76-152.16h33.57v10.87h11.19v10.87h11.17v32.61h11.19v43.47h11.19v32.6h11.19v10.87h11.19v-108.68h-11.19v-21.74h-11.19v-10.87h11.19m11.19 163.03v-10.87h11.19v-32.6h11.18v-10.87h11.19v-21.74h11.19v21.74h11.19v10.87h11.19v32.6h11.19v10.87h-22.38v10.87h-33.57v-10.87zm33.56-108.69h11.19v10.87H179.5z"/><path class="cls-1" d="M134.75 1109.14v-54.34h11.19v10.87h11.19v-10.87h11.18v-21.74h11.19v-21.74h11.19v21.74h11.19v21.74h11.19v10.87h11.17v-10.87h11.19v54.34h-11.19v97.82h-11.17v-21.74h-11.19v-76.08h-11.19v-10.87H179.5v10.87h-11.19v76.08h-11.18v21.74h-11.19v-97.82zm111.87-141.28h11.19v21.74h-11.19zM235.43 957h11.19v10.87h-11.19zm44.75 54.32v10.87H269"/><path class="cls-1" d="M324.94 1098.27h-33.57v10.87h-11.19v10.87H269v32.61h-11.19v43.47h-11.19v32.6h-11.19v10.87h-11.19v-108.68h11.19v-21.74h11.19v-10.87m78.32-206.5h11.19v10.87h-11.19zm-201.38 347.79h11.19v10.87h-11.19zm0 43.48v-10.87h44.75v10.87h11.19v10.87h11.19v-10.87h11.19v-10.87h44.75v10.87h-33.56v21.73h11.19v10.87h11.18v21.74h-11.18v-10.87h-11.19v-10.87h-11.19v-10.87h-33.57v10.87h-11.18v10.87h-11.19v10.87h-11.19v-21.74h11.19v-10.87h11.19v-21.73zm805.48-326.06v-10.87h22.38v10.87h11.19v10.87h22.36v10.87h22.38v10.87h11.19v10.86M895.5 1533.03v-97.82h11.18v21.74h11.19v10.87h11.19v21.74h11.19v21.73h-11.19v10.87h-11.19v21.74h11.19v10.87h11.19v10.87h11.19v10.86"/><path class="cls-1" d="M828.38 1446.08h22.36v-10.87h11.19v-10.87h11.19v-10.86h11.19v43.47h-11.19v54.34h11.19v21.74h11.19v32.61h-22.38v-21.74h-11.19v-21.74h-22.38v21.74h-11.17v-21.74h-11.19v-43.47h11.19v-21.74m67.12-32.61v-32.6h11.18v-32.61h11.19v21.74h11.19v43.47h-11.19v-10.86h-11.19v10.86zm-78.31-32.6v-10.87h44.74V1370h22.38v-10.87h11.19v32.61h-11.19v10.87h-44.76v-10.87zm100.68-65.21v-32.61h11.19v-10.87h22.38v10.87h22.37v10.87h11.18v-10.87h22.38v-10.87h22.37v10.87h11.19v32.61h-33.56v32.6h-55.93v-32.6z"/><path class="cls-1" d="M973.81 1272.17v-21.74l-.01-10.87h11.17l.02 10.87v21.74h11.19v10.88h-11.19v10.87h-11.18v-10.87h-11.18v-10.88zm145.42 10.88v10.87h-11.17v10.87h-33.56v-10.87h-11.19v-21.75h-11.19v-21.74h-11.19l-.02-10.87h-11.18l.01 10.87h-22.37l-.02-10.87h-11.19v-43.47h11.19v-43.47h-11.19v-10.87h22.38v10.87h22.37"/><path class="cls-1" d="M951.44 1250.43h11.19v21.74h-11.19zm11.17-54.34h11.19v43.47h-11.19zm33.55 0v-43.48m-22.36-21.73h11.17v10.87H973.8zm-111.89 21.74v-10.87h33.57v-10.87h11.19v-10.87h33.56v10.87h-11.19v10.87h-11.18v10.87h-11.19v10.86H873.1v-10.86zm33.57-76.08v-10.87h22.38v10.87h33.56v21.73h11.19v21.74h-22.38v-10.87h-11.19v-10.87h-22.37v-21.73zm123.06 54.34h11.19v10.87h-11.19zm-33.57-32.61v10.87H973.8v-21.74h11.17v-10.86h11.19v-21.74h22.38v10.87h-11.19v21.73h-11.19v10.87m-33.55 0h11.19"/><path class="cls-1" d="M940.23 1065.67h11.19v-21.74h11.19v10.87h11.19v10.87h-11.19v32.6m-492.24 489.09v-21.74h11.19v-21.74h22.38v10.87h-11.19v32.61h11.19v10.87h11.19v10.87h22.38v10.86h-44.76v-21.73h-11.19v-10.87z"/><path class="cls-1" d="M526.32 1630.83h-44.76v-10.87h-11.19v-10.86h22.38m89.5-21.74h11.18v-10.87M302.56 1435.2v10.87h22.38v10.86h22.38v10.87h22.37v10.87h11.19v10.87h11.19v10.87h22.36v10.87h22.38v10.87h22.38v21.73h-22.38v10.87h-11.19v10.87h-11.19v10.87h-11.19v10.87h-55.92v-21.74h22.37v-10.87h11.19v-10.87h-11.19v-10.86h-22.37v10.86h-44.76v-32.6h33.57v-10.87h11.19v-10.87h-11.19v-10.87h-44.76v-10.87h-11.19v-10.87h-22.37v-10.86h-22.37m357.99 130.42v-10.87h11.19v-10.87h11.19v21.74z"/><path class="cls-1" d="M593.43 1576.49h-11.18v32.61h-33.57v-10.87h11.19v-10.87h11.19v-32.61h33.56m145.44-32.59v-10.87h11.19m11.19-10.87v-10.86h11.18m-11.18 10.86h-11.19v10.87m22.37-32.6v10.87m-100.68 108.67v10.87h11.18v10.86h-22.37v-10.86h-11.18v-21.74h-11.19v10.87H627v-10.87h11.19v-21.74h11.19v-10.87h33.56v-10.85h11.18v-21.74h-11.18m11.18-97.82h11.18v10.87h11.19v10.87h67.13v-10.87h44.76v10.87m55.93-43.47h11.18m0-65.21h11.19m0-65.23h11.19v21.75h-11.19zm-682.42-21.74h11.18m783.11 21.74v-10.87h11.19v-10.87h11.19v21.74zm-783.12-32.61h11.19m-33.55 0h11.17m-11.17-10.87h11.17m-11.17-10.86h11.17"/><path class="cls-1" d="M962.61 1239.56h-11.19l.02 10.87h-22.38l-.02-10.87h-11.18l.01 10.87h-11.19v21.74H895.5v21.75h-11.19v10.87h-33.57v-10.87h-11.19v-10.87m89.49-141.3h11.19m-604.1-32.61h-11.19v-10.87m55.93-130.41h11.18m44.76-21.73h-22.38m-190.19 0h11.19V957h-11.19zm682.43-10.89h-11.19l-11.19.02M448 924.39h22.37m391.54-21.75h-55.92m44.75-10.87H794.8m0-10.87h44.75"/><path class="cls-1" d="M839.55 1065.67v-86.95h11.19v-65.21h22.36v10.86h11.19v43.48H873.1v10.87h-11.19v54.34h-11.17v32.61zm-44.75-76.08h11.19v10.87H794.8z"/><path class="cls-1" d="M772.42 1022.19v-43.47h11.19v21.73h11.19v10.87h-11.19v10.87zm145.44-108.68v21.73h-11.19v-10.87h-11.19v-10.86m22.38 0h-33.57m44.75 43.47h11.19v21.74h-11.19zm-212.55 684.73v-32.61h11.19v21.73h22.38v-21.73h44.75v21.73h22.38v-21.73h44.74l11.19.01v21.74h22.38v-21.74h44.75v21.74h22.38v-21.74h44.74v21.74h22.37v-21.74h44.76v21.74h22.37v-10.87h-11.19v-21.74h22.38v10.87h11.19v-21.74h-22.38v-43.47h22.38v-21.74h-22.38v-43.47h22.38v-10.87l-.02-10.87h-22.36v-43.47h22.36v-21.74h-22.36v-43.48h22.36v-21.73h11.19v32.6h-22.36v21.74h22.36v43.47h-22.36v21.74h22.36v43.48h-22.36v21.73h22.36v43.48h-22.36v21.73h22.36v65.23h-67.11v-21.75h-22.38v21.75h-44.75v-21.75h-22.37v21.75l-11.18-.02h-33.57v-21.73h-22.38v21.73h-44.75v-21.75h-33.55v21.75h-44.76v-21.75h-22.37v21.75zm-89.51-771.68h11.19v10.87h-11.19z"/><path class="cls-1" d="M.5 815.7v847.72h1152.3V815.67m-9.95 10.42v826.4l-1131 .67-.2.1V827.05"/><path class="cls-1" d="M526.3 880.9h11.19v21.74H526.3zm-22.38-10.87h22.38v10.87h-22.38z"/><path class="cls-1" d="M503.92 859.16v-10.87h33.57v10.87h11.19v10.87h33.57v32.61h-33.57V880.9h-11.19v-10.87H526.3v-10.87zm-44.73 10.87v-21.74h22.36v10.87h11.19v76.1h-11.19v-10.87h-11.18v-10.87h11.18V880.9h-11.18v-10.87zm-22.38 97.83H448v10.87h-11.19zM448 957h11.19v10.87H448zm-33.57 0h22.38v10.87h-22.38zm22.38-21.74H448V957h-11.19zm-33.57 0h11.19V957h-11.19z"/><path class="cls-1" d="M10.46 1653.02h1.43l1137.51 1.19m-18.92-295.08h-22.37v21.74h22.37v43.47h-22.37v21.74h22.37v43.47h-22.37v21.72h22.37v43.47h-22.37v21.74h22.37v65.23h-67.17v-21.74h-22.38v21.76h-44.72v-21.76h-22.36v21.76h-44.79v-21.76h-22.37v21.74h-44.76v-21.75h-33.55v21.75h-44.75v-21.75h-22.42v21.75h-44.72v-32.62h11.19v21.74h22.38v-21.74h44.75v21.74h22.4v-21.74h55.93v21.73h22.38v-21.73h44.69v21.73h22.38v-21.73h44.74v21.73h22.37v-21.73h44.76v21.73h22.38v-10.85h-11.19v-21.7H705.31v-10.87h369.19v-260.88h11.19v271.75h22.37v10.87h11.15v-21.77h-22.37v-43.48h22.37v-21.73h-22.37v-43.48h22.37v-21.73h-22.36v-43.48h22.36v-21.74h-22.36v-43.46h22.36v-21.74h11.19Zm-167.8 65.21v-43.47h11.19v32.6h11.17v10.87h11.17v10.87h11.19v10.87h11.19v32.6h-11.19v10.87h-11.19v-10.87h11.19v-10.87h-11.19v-10.86h-11.19v-10.87h-11.17v-21.74Zm123-641.29v206.53h-11.19v-97.83m33.45-184.8v21.74h22.38l.11 43.51h-22.38v21.73h22.38v43.49h-22.39v21.74h22.39v43.46h-22.36v21.75h22.36v43.47h-22.36v21.74h22.36v43.48h-22.36v21.73h22.36v43.48h-22.36V1120h22.36v43.48h-22.36v21.79h22.36v43.47h-22.36v21.74h-11.18v-32.61h22.32v-21.74h-22.38v-43.47h22.38v-21.79h-22.38v-43.47h22.38v-21.74h-22.38v-43.47h22.38v-21.74h-22.36v-43.47h22.36v-21.71h-22.36v-43.52h22.36v-21.74m-44.74 152.18v10.87h11.19v43.47h-11.19v10.87h-33.56v-10.87h33.56v-32.61h-22.36v-32.6h11.18v-10.87h22.38v10.87h-22.38v10.87ZM682.93 880.9h44.75v10.86h-44.75Zm0 32.6h11.19v10.87h22.37V913.5h11.19v-10.87h11.18v-43.47h-11.18v-10.89h-22.37v-10.85h44.73v10.85h33.57v10.87h22.38v10.87h33.56v10.87h11.19v10.86h11.18v10.87h11.18v10.88h11.19v-10.87h33.57v10.88h44.75v10.87h22.36v10.9h11.24v10.87h11.19v-10.87h22.38v-10.9h11.19V913.5h-11.19v-10.88h22.38v32.65h-11.19v10.87h-33.57v10.87h11.19v10.86h11.19v43.48h-11.19v-10.87h-44.74v-10.87h-22.43v-10.87h-11.21v21.74h11.18v32.61h11.22v10.86h11.19v10.87h11.17v-10.87h33.57v-10.86h11.19v54.34h-11.19v10.84h22.38v10.87h22.37V1120h11.19v10.87h11.19v10.87h-11.19v10.87h-33.56v21.74h11.19v43.47h11.18v21.74h11.19v21.71h11.19v10.86h11.19v10.89h22.35v-10.89h11.19v21.76h-11.19v10.87h-11.18v10.86h-33.56v-10.86h-11.16v-10.87h-11.19v32.6h-11.19v10.87h-22.37v21.74h-11.19v10.87h-55.93v-10.87h-11.23v-21.74h-22.34v-10.87h-11.18v32.61h11.18v-10.83h11.19v32.61h11.15v54.34h11.19v10.87h-22.34v-10.87h-11.19v21.74h11.19v10.86h11.15v21.74h11.19v21.71h11.19v10.87h11.19v10.87h-33.57v-10.87h-11.15v21.73h11.15v10.87h11.19v10.87h11.19v10.87h-44.72v-10.87h-11.18v-21.74H895.5v21.74h-22.38v-21.74h-11.19v-21.73h-22.38v21.73h-11.17v10.86h-11.17v10.87H806v-10.87h11.21v-32.59H806v-54.35h11.21v-10.86h11.19v-10.87H806v10.87h-22.37v10.86h-33.57v10.87h-78.3v-10.87h-22.38v-10.86h-11.17v-32.61h11.19v10.87h11.19v10.87h22.37v10.87h22.35v-10.87h-11.19v-32.59h11.19v10.87h11.18v10.87h44.72v-10.87h-11.15v-10.87h-11.19V1370h11.19v10.87h11.15v10.86h11.19v10.87h67.11v-10.87h-22.3v-10.86H806v-21.74h11.21V1370h44.74v-10.87h22.36v-10.86h11.19v-21.74h11.19v-32.6H895.5v10.87h-11.19v10.86h-33.57v-10.86h-11.19v-10.87h-11.17v-21.76h11.17v10.89h22.38v-10.89h11.19v-10.9h11.19v-21.74h11.19v-21.74h11.19v-43.47h11.19v-21.74h-11.21v10.87h-11.19v10.87h-55.93v-10.87h-11.19v-10.87h11.19v-10.87h11.19v-10.84h11.18V1120h11.18v-10.86h33.57v-10.87h-22.38v-21.74H873.1v-32.61h11.19v10.87h44.76v10.87h11.16v-21.74h-11.16v-43.47h-11.19v-32.61h-11.19v43.48h-11.19v-10.87h-11.19v-21.74H873.1v54.35h-11.18v32.6h-11.18v10.87h-11.19v10.87h-33.56v-10.87h11.22v-43.47h-11.22v-32.61H794.8v10.87h-11.19v10.87h-11.19v-43.48h11.19v-21.73h11.19v-21.71h11.19v-32.64H794.8v-10.87h-11.19v-21.73h-11.19v-10.87h-11.21v108.68h-11.17v-21.73h-22.36v10.87h-33.56v-10.87h-11.19Zm402.74 250v65.21h-11.19v-65.21ZM22.88 989.65l33.56-97.82h22.38v173.88H67.63V674.38h11.19Zm44.74 87v10.87H90v-10.87h11.19v10.87h44.75v10.85h-33.57v-10.85h-11.16V935.27h11.19v-10.88h56v10.88h-44.84v10.87h-11.19v32.61Zm-44.74 108.62h22.38v-21.74H22.88v-32.66h11.19v21.74h22.37v43.47H34.07v21.74H22.88Zm559.37-163v-21.74h-44.76v-10.85h-33.56v-10.87h-11.19v-10.95h-11.19v10.87h-22.34v21.72H448v10.87h-44.79v-10.87h-11.15v-21.72h-11.19v10.87h-22.38v-10.87H347.3v21.72h-22.36v10.87h-11.19v10.87h-11.19v10.87h-11.19v10.86h-11.16v21.74H269v10.87h44.75v10.87h11.19v10.87h11.19V1120h-11.19v-10.86h-33.57V1120h-11.16v32.61H269v43.47h-11.19v32.61H269v-10.87h67.13v10.87h11.17v10.87h-11.17v10.87h-11.19v10.84h-11.19v10.86h-11.19V1283h-22.35v10.87h-33.57v10.87h11.17v10.87H269v54.34h11.21v21.74h11.18v10.87h11.19v10.87h11.19v10.87h11.19v-21.74h-11.21v-54.29h11.19v-21.73h11.19v-10.87h11.19v-10.9h44.75v10.87h-22.38v10.87h-11.18v21.76h-11.19v21.74h11.19v-10.87h22.37v10.87h-11.19v32.61h-11.18v32.6h11.18v21.74h11.19v-54.34h11.19v-10.87h33.55v10.87h-11.19v43.47h11.19v10.87h11.19v-10.87H448v-10.87h11.21v10.87H448v21.74h11.21v10.87h11.19v10.87h11.19v10.87h22.37v10.83h55.93v10.87h123.05v-10.87h-11.18v-21.74h11.18v10.87h11.18v10.87h22.37v-10.87h22.38v-10.87h22.34v-10.87h33.6v10.87h-11.18v10.87h-11.19v10.87h-11.23v10.87h-11.15v32.59h11.15v10.87h-11.15v-10.87h-11.19v-21.72h-22.38v10.86h-11.18v10.86h-11.19v10.87h-11.18v10.86h-11.18v21.81h22.36v10.87h11.19v10.87h-33.55v-10.87h-11.19v-21.74h-11.19v10.87H627v-10.87h11.21v-21.73h11.19v-10.87H627v21.73h-11.19v10.87h-22.37v10.87h11.18v10.87h11.19v10.87h-11.19v10.87h-11.18v10.88h-33.57v-10.87h-11.19v-10.87h-11.17v10.87h-11.19v10.87h-44.75v-10.87h-22.36v-21.74h11.19v-10.88H448v-10.87h-11.19v-21.73h-11.19v21.73h-22.41v10.87h-67.08v-32.6h11.19v-10.87h-44.76v-10.87h-11.19v-10.87h-11.16v-10.87h11.18v-10.92h11.19v-10.86h33.57v-10.87h-44.78v-10.87h-11.16v-10.87h-22.4v-10.87h-22.36v10.87h-11.19v10.87h-11.19v-21.74h11.19v-10.87h11.19v-10.87h67.11v-10.86h-11.19v-10.87h-11.16v-10.87H269v-32.61h-11.19v10.87h-11.17v10.87h-11.19v-10.87h-11.19v-10.87h-11.19v-10.87h-11.19v-21.73h-11.19v-32.61H179.5v32.61h-11.18v21.73h-11.19v10.87h-11.19v10.87h-11.19v10.87h-11.19v-10.87h-11.19v-10.87h-11.16v-54.34h11.17v-10.87h11.19v-10.87H90.01v-10.87H67.63v-10.87H56.44v-10.89H45.26v-10.87H34.07v-10.87H22.88v-10.87h22.38v-10.87h55.95v10.87h11.19v-32.61h-11.19v-43.47h-11.2v-32.61H78.82v87H67.63v-87h11.19v-10.86H45.26v10.86H34.07v-21.7h11.19v-10.87h11.18v-10.87h44.77v10.87h11.19v10.87h11.19v-54.35h11.19v-10.86h11.19v21.73h11.19v-21.73h11.19v-21.74h11.18v-10.87h11.19v10.87h11.19v21.74h11.19v21.73h11.11v-21.73h11.19v10.86h11.19v54.35h11.22v-10.87H269v-10.87h-11.19v-32.61H269V989.6h-11.19v43.46h-11.19v-21.74h-11.19v-10.87h-11.22V989.6h-11.14v-10.87h-11.19v-10.87h-11.19v-21.74H179.5v-43.47h11.19v10.87h33.52v10.87h22.38v10.88h11.22v10.87H269v21.74h11.21v43.46h11.18v-10.87h11.19v-21.72h-11.21v-21.76h-11.16v-10.87h11.18v10.87h11.19v10.87h11.19v21.74h11.19v-10.87h22.36v-43.46h-11.19v10.87h-11.19v-10.87h-11.19v-10.88h-11.19v-54.36h11.19v-10.87h11.19v10.87h22.36v32.6h-11.17v10.89h11.17v21.75h11.19v-10.88h11.19v-10.87h-11.19V880.9h11.19v-10.87h33.53v-10.87h-11.15v-10.89h-11.19v-10.85h33.56v10.85h11.19v10.87h11.19v10.87H448v-21.74h11.21v-10.85h22.36v10.85h22.38v-10.85h33.56v10.85h11.19v10.87h33.51v-10.87h22.4v-10.85h33.6v10.85h11.19v10.87h11.19v10.87h11.19v32.6h-11.23v21.76h-11.19V913.5h-11.15v-10.87h-11.22v-10.87h-22.38v-21.73h-11.17v32.6h-11.23v10.87h22.4v10.87h11.19v10.9h11.19v43.47H615.8v-10.9h-33.59v-10.86h-11.15v-32.6h11.19V913.5h-33.57v10.87h11.19v21.73h-11.19v10.87h-33.57v-10.85h-11.18v-10.85h-11.19v32.61h44.75v10.87h22.38v10.87h41.82v43.4h-8.25m-436.31 521.71v-10.85h-11.19v-10.87h-11.19v-65.21h11.19v-21.74h11.19v-10.87h11.19v-10.86h22.37v-10.87H269v10.87h-44.74v10.86h-22.38v10.87h-11.19v43.48h11.19v10.87H179.5v-10.87h-11.18v-21.74h-11.19v43.47h11.19v21.74h11.18v10.87h44.76v-10.87h11.19v21.72h-11.19v10.87H179.5v-10.87Zm-134.25 21.74h22.38v-21.74H22.88v-43.46h22.38v-21.73H22.88v-43.48h22.38v-21.73H22.88v-43.48h22.38v-21.74H22.88v-43.47h22.38v-21.74H22.88v-32.63h11.19V1283h22.37v43.48H34.07v21.79h22.37v43.48H34.07v21.74h22.37v43.47H34.07v21.74h22.37v43.47H34.07v21.74h22.37v43.46H34.07v21.74h11.19v-10.87h22.37V1293.9h11.19v293.44h246.12v10.93H67.63V1620H56.44v10.87h22.38v-21.73h44.74v21.73h22.38v-21.73h44.75v21.73h22.38v-21.73h44.74v21.73h22.38v-21.74h44.75v21.74h22.38v-21.74h44.75v21.74h22.36v-21.74H448V1620h-22.38v21.74h-44.74V1620h-22.37v21.74h-44.76V1620h-22.38v21.74h-44.73v-21.76h-22.38v21.76H179.5v-21.76h-22.37v21.74h-44.76v-21.74H90.01v21.74H22.88Z"/><path class="cls-1" d="M682.94 1522.16h11.17v10.87h-11.17zm313.22-402.15h22.38v10.87h-22.38zm22.38 10.87v-10.87"/><path class="cls-1" d="M996.16 1109.14h44.75v10.87h11.19v21.74M425.62 891.77h11.19v10.87h-11.19zm11.19-10.87h-11.19v10.87h-11.19V880.9h-11.19v-10.87h33.57m358-10.87-.01 10.87m167.83 413.02h-11.19m44.74 0h11.19v-10.88h11.18m-436.3-413.01h11.18v10.87h-11.18m111.87 54.34-11.19.02m11.19-.02v10.89l22.37-.02v-10.87m0 0h11.19v-10.86h11.17v-10.87m0-43.48h11.36v43.48h-11.36m0-43.48v-10.87h-11.17m67.12 32.61h-11.19m33.56 32.61v-43.48m-11.18 32.61v-32.61h-22.38m44.75 0v43.49m11.19-.01V880.9m-33.56 54.34h11.18v-21.73h22.38m-22.38 0-11.18.01m0 86.93h11.18v32.61m22.38 43.48h-11.19v-43.48h-11.19m-33.56-54.34 11.2.01-.01-21.75h11.19v-21.74m33.56 141.31v-10.88m0-86.95v-65.21h11.19m0-21.74v21.74m11.18.01-.01-10.88m33.57 97.81v-32.6m11.19 21.74h-22.38m23.63-10.86-23.63-.01m0 0v-10.87m0 0h22.38m-11.19 0v-43.48m0 0h-11.19v-10.86m33.57 32.6h-11.19m22.37 10.87-11.18.01v-21.75m11.18 10.87h-11.18"/><path class="cls-1" d="m996.17 978.72-.01-10.87h-11.19v-10.86l-22.36-.01v-10.86l-11.19-.01v-10.87h-33.56m78.3 10.87-11.19.01v-10.88"/><path class="cls-1" d="m984.97 935.24-22.36.02v-10.89m-44.75 0h44.75m87.76 217.38h-9.45m-134.25-21.74v-10.87h22.37m-346.8-239.11v-10.87m-33.56 65.23-11.19-.02v-10.85m11.19 32.61v-21.74m0 21.74h-33.57m22.38-43.49h11.19v10.88h-11.19zm-11.19 0v10.87h-22.38v-10.87m-11.18 0h33.56m-22.38 0V880.9m0 0h-11.18m11.18-21.74h-11.18m22.37 86.97v-10.89l-11.19.02m-11.18-10.89h11.18v10.89m-89.49-43.49h-11.19m11.19 10.87v-10.87m-11.19 0V880.9h-33.56m0 32.62V880.9m11.19 43.49v-10.87h-11.19m0 21.74v-10.87h11.19m22.37 76.06H448m-44.76 0v-21.72m44.76 21.72v-21.72m-33.57 0h22.38M392.05 957v21.73h22.38m33.57 0h11.19v-10.87m-100.7 10.87h22.38m-11.19-43.47h-11.19M403.24 957v10.86h11.19m0-32.6h22.38m0-10.87h-22.38m44.76 43.47h22.36m0-32.6h-11.18m-11.18 0h11.18m0-10.87V957h-11.18v-21.74H448v-10.87M392.05 957h11.19m11.19-21.74v-10.87"/><path class="cls-1" d="M414.43 913.52v10.87h-11.19v10.87h-11.19V957h-11.18v10.86h-11.19v-32.6h11.19v-10.87h11.18v-10.87h-11.18v-21.75h22.37v10.87h11.19m11.19 10.88h-11.19v-10.88h11.19m33.57 10.88-11.19-.01v10.88h-11.19v-10.88l-11.19.01v-10.88m-89.49 532.56v-10.87h-11.19m33.56-97.82h-11.18v21.74m11.18-21.74v-10.87h11.19m0 0v-10.87m-22.37 65.22h-11.19v-21.74h11.19m11.18 21.74v32.6m11.19-32.6H358.5m-22.37 65.21h-33.57m22.38 10.87v-21.74m-11.19 0v10.87m0-10.87h-11.19m0 0v-10.87m0 0h-11.19m0 0v-10.87m-11.19 0h11.19m-11.19 0v-10.87m0 0H269m-78.31 32.61h33.57m190.17-32.61v10.87m0 0h-11.19v43.48h11.19m0 0v10.86h11.19m11.19 0v10.87H448m0 0v10.87h11.19v10.86l11.18.01v10.87h11.19v10.87h22.38m-44.75 21.74h33.56v-10.87h-33.56m0 0v-10.87h-22.38m0 0v-10.87h-22.38m-44.74-32.61h10.55v-10.87h11.83v21.74h11.17v10.86h11.19v10.88m-178.99-43.48v-10.86m111.88 97.81v10.87h22.37v-10.87m67.12 21.74v-10.87m0 0h22.38m0 0v-10.87h11.18m-123.05 0h22.37m-145.43 0v10.86H179.5m0 0v-10.86h-22.37m0 0v-10.86h-11.19m0-.01v-65.21m0 0h11.19v-21.73m0 0h22.37v-10.87h11.19v-10.87m179 43.47v-10.87H358.5v-10.86h11.19m-11.19 0h-11.18v-10.87h-11.19v10.87h-11.19"/><path class="cls-1" d="M436.81 1565.62h22.38v-10.87h11.18v-10.87h11.19m44.76 0v-21.73h33.55m11.19 32.6v-10.87h-11.19m-44.74 54.35v-10.87h-11.19m33.57-10.87v-10.87h-11.19v10.88zm-33.57-21.74h55.93v-10.87h-55.93m55.93 43.48v-32.61h11.19m-22.38 43.48v-10.87h11.19m-44.74 10.87h33.55m0 21.73h22.38v10.87h11.19v-21.73m33.56-54.35H627m-100.68 76.08v-10.87m22.36 0v-10.86h-11.17m-33.57-21.74v-32.61m234.93-21.72v-10.87h11.19m-111.87-86.95h11.19v10.87h11.19m22.37 10.87h-22.37v-10.87m44.73 21.74h-22.36v-10.87m78.31-21.74h22.37m33.57-32.6v10.87h-44.75v-10.87h-11.19v-10.87h-11.19v-10.87h-11.19m89.51 54.34h22.36v-10.87h11.19v-10.86h11.19v-10.87M806 1370h11.19m0 10.87V1370m89.49-21.74H895.5v10.87h11.18m33.57-21.73v-10.87m0 10.87h11.19m-33.57 97.81v-10.87m-11.19 10.87v-10.87m-11.19-10.86h-11.18m33.56 10.86h-11.19m0 10.87h11.19m-22.38 10.87h-11.18m0 10.87v54.34m-134.25-43.47H705.3v-10.87m313.25-119.55h-11.19m11.19 0v-10.87m22.38-32.61h11.19m-33.57-21.75v10.88m22.38-10.88v21.75m-123.06-21.75v-21.74h11.19"/><path class="cls-1" d="M929.06 1250.43v11.56h11.19v10.18"/><path class="cls-1" d="M940.25 1283.05v-10.88h-22.38m55.94-21.74h-11.18l-.02-10.87m22.38 10.87h11.19m11.19 21.74h-11.19v-21.74m11.18 0v21.74m44.76 0h-11.19m11.19 21.75v-21.75m-89.51-76.08v-43.48m0 43.48-11.17.01-.02-43.48h11.19m33.55 0h-11.17l-.02-10.87m-22.36 0v10.87h11.19v-10.87m22.36 97.81h-11.19l.02-43.46 11.17-.01m11.21 54.34h-11.19l-.02-10.87m-78.3-86.94h22.37v-21.74h22.38v-10.87h33.55v-21.74h-11.19m-11.17 43.48h-33.57m55.93 0h-11.19m44.76 10.87v-10.87h11.18v10.87m-458.67-130.43v10.89M470.37 913.52h-11.18v-21.75h-22.38V880.9m33.56 32.62V880.9m11.18 86.96v-32.6m-11.18-54.36h-33.56v-10.87m11.19 0h11.19m-100.7 108.7v-43.47m-100.68 293.43h-11.19m0-130.42h-11.19m-78.31 119.56v-10.87m0 0h11.19m44.76 0h-11.19m0 0v-21.74h-11.19m0 0v-10.87H179.5v10.87m-11.19-10.87h11.19v-10.87h-11.19m33.57 10.87h-11.19v-10.87h11.19m-167.81-54.34h11.18m0 0v-10.87m78.31 141.29v-10.87m0 65.22h33.56m89.51 0h-33.56m-89.51 0v-10.87m22.38-21.74h-11.19v-10.87m0 0h11.19v-10.87m22.37-32.6v-21.74h11.19m-33.56 32.61h11.18m-11.18 21.73 11.18-.02m-11.18-10.85h11.18m89.5 10.87 11.19-.02v-10.85M56.44 891.78v10.87H34.07v21.72h22.37v43.49H34.07v21.73h22.37v46.3H34.07v22.7h22.37v9.99l-33.56-.21v-46.18h22.37v-21.74H22.88V989.6m1096.34-119.58-22.36.01v-43.49l22.36-.45V804.8m0 0h-22.36v-43.47h22.36l-.11-21.75h-22.36v-43.49h22.36v-21.74h-22.36v-43.46h22.36l.12-21.72h-22.48V598.3h33.57v43.46h-22.39v21.72h22.39v43.48h-22.39"/></svg>