<svg id="Layer_1" data-name="Layer 1" xmlns="http://www.w3.org/2000/svg" viewBox="0 0 1520.38 1518.18"><defs><style>.cls-1,.cls-2{fill:none;stroke-linejoin:round;stroke-width:16px}.cls-1{stroke:#fff}.cls-2{stroke:#fff;stroke-linecap:round}</style></defs><path class="cls-1" d="M1380.53 139.67v481.77h34.46v34.41h34.46v34.42h34.47v34.41h34.46v51.62h-34.46v34.41h-34.47v34.42h-34.46v34.41h-34.46v498.99H898.04v34.41h-34.46v34.42h-34.46v34.41h-34.47v34.41h-51.69v-34.41H708.5v-34.41h-34.47v-34.42h-34.46v-34.41H139.85V896.75h-34.46v-34.42H70.93v-34.41H36.46v-34.41H2v-51.62h34.46v-34.42h34.47v-34.41h34.46v-34.41h34.46l3-498.59v-.11l479.49-.3v-34.41h34.46V70.83h34.46V36.41h34.47V2h51.69v34.41h34.46v34.42h34.47v34.41h34.46v34.41h499.72v481.79"/><path class="cls-1" d="M178.3 1340.14V861.63h-34.23v-34.18h-34.23v-34.18H75.61V742h34.23v-34.18h34.23v-34.18h34.23v-495.6h479.2v-34.18h34.23v-34.18h34.23V75.5h51.34v34.18h34.23v34.18h34.23v34.18h496.33v478.51h34.22v34.18h34.23v34.18h34.23v51.27h-34.23v34.18h-34.23v34.18h-34.22v495.6H862.88v34.18h-34.23v34.18h-34.23v34.18h-51.34v-34.18h-34.23v-34.18h-34.23v-34.18z"/><path class="cls-2" d="M769.06 1034.87h88.69v17.72h35.48v35.42h17.74v70.85h-17.74v35.43h-35.48v-35.43h-17.74v-17.71h-17.74v-17.71h-17.73v-17.72H786.8v-35.42h-17.74z"/><path class="cls-2" d="m1087.39 1143.5 61.16.3.27-121.98h18.07l-.01-63.23.03-18.06v-18.07h-18.09V904.4h-40.88v-18.06h22.52v-18.07h.26v-.45h19.67l-.25-25.08 16.77-.25v-28.41l18.43-.55-.34-17.52h18.09v-18.06h18.09v-21.59l73.13-.41-.77-86.39V651.5h-18.09v-18.07h-72.36v-18.06H1185V597.3h-18.09l-18.09.46-54.28-.46h-18.09v18.07h-18.09V597.3h-18.09v-36.12h-18.09v-36.13h-18.09v-36.13H986v-72.26h18.09V398.6h18.09l-.23-54.2h-126.4l-19.97-.13v38.55l-29.08.23V344.4h-41.41v-55.77h-90.45v55.77h-43.08v37.55h-27.11V344.4H515.64l-17.95.37-.13 53.83h18.08v18.06h18.1v72.26h-18.1v36.13h-18.08v36.13h-18.1v36.12h-18.09v18.07h-18.09V597.3h-18.09l-54.27-.08-18.09.08h-18.09v18.07h-18.09v18.06h-72.36v18.07H226.2v18.06l.13 88.14h72.85l-.62 20.25h18.09v18.06h18.09l.46 18.04 17.63.03v36.13l25.98.51v18.07h21.37v18.06l16.48.39v18.07l-45.74-.91v18.06h-18.09v90.33l18.09.35.52 131.79h63.43l-1.04-33.09h20.2l-.49-16.83 21.23-.52.38-20.18 112.86-.02v28.82h-18.09v54.19h18.09v36.13h18.09v20.58h18.09v22.72h36.18l.63-22.72h31.96l-.35-29.66 21.9-.34.13 20.9 98.43.02.34-22.6 21.79.08.31 33.64 23.86.01v23.17h36.18v-22.36h18.09v-23.44h18.09v-36.13h18.09v-54.19h-18.09l.91-28.13 117.12-.02-.46 18.52 21.5.53-.26 21.09"/><path class="cls-2" d="M901.31 379.5h80.61v17.71h-17.74v35.43h-17.73v53.14h17.73v35.42h17.74v35.43h17.74v35.42h17.74v35.43h17.74v123.99h-17.74v-70.85h-17.74v-35.43h-35.48v-17.71h-53.21v-70.85h-17.74v-17.72h-70.96v-35.42h-17.73v-53.14h17.73v-17.71h17.74v-17.71l60.66-.01z"/><path class="cls-2" d="M1088.35 627.48h70.96v17.71l18.05-.12-.31 17.83H1248v17.72h17.74v53.14h-70.96v17.71h-17.73v17.71h-17.74v17.71h-17.74v17.72h-17.74v35.42h-17.74v17.72h-17.74v17.71h-17.74v17.71h-35.47v17.71h-17.74v17.72h-17.74v17.71h-35.48v17.71h-70.95v-17.71h53.22V928.6h35.47v-35.43h17.74v-17.71h17.74v-17.71h17.74v-35.43h17.74v-53.14h17.73V645.19h17.74z"/><path class="cls-2" d="M1035.14 946.31V928.6h88.69v17.71h17.74v59.61l-18.03-.81-.41 118.33h-17.04v-35.43h-17.74v-17.71h-17.74v-17.71h-35.47v-17.72H893.23v-17.71h-53.22v-17.71h88.7l.17-17.66 17.57-.05h35.47v-17.72h35.48v-17.71zm-266.08 35.43V928.6h17.74v-17.72h17.74v-17.71h35.47v-17.71h17.74v-17.71h17.74v-17.72h17.74v70.85h-17.74v17.72h-17.74v35.42h-17.74v17.72h-35.47v32.76h-35.48z"/><path class="cls-2" d="M680.37 840.03v-35.42h17.74v-35.43h17.73v-35.42h17.74v-35.43h-17.74v-17.71h53.22v17.71h17.74v17.71h17.74v17.72h17.73v106.27h-17.73v17.72h35.47v-17.72h17.74v-17.71h17.74v-17.71h35.48v53.14h17.74v35.42h-17.74v35.43h17.74v-17.72h17.74v-17.71h17.73v-35.42h17.74v-35.43h17.74V698.33h-17.74v-17.71h-17.74V662.9h-17.73v-17.71h-35.48v17.71h-35.48v17.72h-17.74v-35.43h17.74v-17.71h17.74v-53.14h-17.74v-17.71h-35.48v17.71h-35.47V521.2H786.8v-17.71h-53.22v17.71h-17.74v53.14"/><path class="cls-2" d="M769.06 910.88h-17.74v-17.62l-17.74-.09v-17.6l-17.74-.11v-17.71h-17.73v-35.43h17.73v-17.71h17.74v-53.14h17.74v-35.43h17.74v17.72h17.74v17.71h17.74v70.85H786.8v70.85h-17.74zM618.63 415.76V379.5h-80.17v17.71h17.74v35.43h17.74v53.14H556.2v35.42h-17.74v35.43h-17.74v35.42h-17.74v35.43h-17.74v123.99h17.74v-70.85h17.74v-35.43h35.48v-17.71h53.21v-70.85h17.74v-17.72h70.96v-35.42h17.73v-53.14h-17.73v-17.71h-17.74v-17.71z"/><path class="cls-2" d="M432.03 627.48h-70.96v17.71l-17.25.77-.48 16.94h-70.96v17.72h-17.74v53.14h70.96v17.71h17.74v17.71h17.73v17.71h17.74v17.72h17.74v35.42h17.74v17.72h17.74v17.71h17.74v17.71h35.47v17.71h17.74v17.72h17.74v17.71h35.48v17.71h70.95v-17.71h-53.21V928.6h-35.48v-35.43h-17.74v-17.71h-17.74v-17.71h-17.74v-35.43H467.5v-53.14h-17.73V645.19h-17.74z"/><path class="cls-2" d="M485.24 946.31V928.6h-88.69v17.71h-17.74v53.14h17.74l-1.54 123.99h19.28v-35.43h17.74v-17.71h17.74v-17.71h35.47v-17.72h141.91v-17.71h53.22v-17.71h-88.7l.27-17.52-18-.19h-35.48v-17.72h-35.48v-17.71zm266.08 88.56h-88.69v17.72h-35.48v35.42h-17.74v70.85h17.74v35.43h35.48v-35.43h17.74v-17.71h17.74v-17.71h17.73v-17.72h17.74v-35.42h17.74zm0-53.13V928.6h-17.74v-17.72h-17.74v-17.71h-35.47v-17.71h-17.74v-17.71h-17.74v-17.72h-17.74v70.85h17.74v17.72h17.74v35.42h17.74v17.72h35.47v32.76h35.48z"/><path class="cls-2" d="M680.37 840.03h-17.74v-17.71h-17.74v-17.71h-35.48v53.14h-17.74v35.42h17.74v35.43h0-17.74v-17.72h-17.73v-17.71H556.2v-35.42h-17.74v-35.43h-17.74V698.33h17.74v-17.71h17.74V662.9h17.74v-17.71h35.47v17.71h35.48v17.72h17.74v-35.43h-17.74v-17.71h-17.74v-53.14h17.74v-17.71h35.48v17.71h35.47V521.2h17.74v-17.71h53.22v17.71h17.74v53.14m-53.22 515.16h17.74v33.94h17.74v54h-53.22v-54h17.74zm29.66-710h41.5l-.21 33.94h-17.73v17.71H786.8v53.14h-53.22v-53.14h-17.74v-17.71h-17.73V379.5l42.88-.02-.86-55.6 39.98.01zm289.56 735.6 16.87.36.24 23.48"/></svg>