<svg id="Layer_1" data-name="Layer 1" xmlns="http://www.w3.org/2000/svg" viewBox="0 0 512.0208 493.80577"><defs><style>.cls-1{fill:none;stroke:#fff;stroke-miterlimit:10;stroke-width:8px;}</style></defs><polygon class="cls-1" points="292.44 146.72 310.655 146.72 310.655 128.505 328.871 128.505 328.871 110.29 347.086 110.29 347.086 92.075 365.301 92.075 383.516 92.075 383.516 73.86 401.731 73.86 419.946 73.86 419.946 55.645 438.161 55.645 456.376 55.645 456.376 37.43 474.591 37.43 474.591 55.645 474.591 73.86 456.376 73.86 438.161 73.86 438.161 92.075 419.946 92.075 419.946 110.29 401.731 110.29 401.731 128.505 383.516 128.505 365.301 128.505 365.301 146.72 365.301 164.935 347.086 164.935 347.086 183.15 328.871 183.15 328.871 201.365 310.655 201.365 310.655 219.58 292.44 219.58 292.44 146.72"/><polygon class="cls-1" points="292.44 347.086 310.655 347.086 310.655 365.301 328.871 365.301 328.871 383.516 347.086 383.516 347.086 401.731 365.301 401.731 383.516 401.731 383.516 419.946 401.731 419.946 419.946 419.946 419.946 438.161 438.161 438.161 456.376 438.161 456.376 456.376 474.591 456.376 474.591 438.161 474.591 419.946 456.376 419.946 438.161 419.946 438.161 401.731 419.946 401.731 419.946 383.516 401.731 383.516 401.731 365.301 383.516 365.301 365.301 365.301 365.301 347.086 365.301 328.871 347.086 328.871 347.086 310.655 328.871 310.655 328.871 292.44 310.655 292.44 310.655 274.225 292.44 274.225 292.44 347.086"/><polygon class="cls-1" points="219.58 347.086 201.365 347.086 201.365 365.301 183.15 365.301 183.15 383.516 164.935 383.516 164.935 401.731 146.72 401.731 128.505 401.731 128.505 419.946 110.29 419.946 92.075 419.946 92.075 438.161 73.86 438.161 55.645 438.161 55.645 456.376 37.43 456.376 37.43 438.161 37.43 419.946 55.645 419.946 73.86 419.946 73.86 401.731 92.075 401.731 92.075 383.516 110.29 383.516 110.29 365.301 128.505 365.301 146.72 365.301 146.72 347.086 146.72 328.871 164.935 328.871 164.935 310.655 183.15 310.655 183.15 292.44 201.365 292.44 201.365 274.225 219.58 274.225 219.58 347.086"/><polygon class="cls-1" points="219.58 146.72 201.365 146.72 201.365 128.505 183.15 128.505 183.15 110.29 164.935 110.29 164.935 92.075 146.72 92.075 128.505 92.075 128.505 73.86 110.29 73.86 92.075 73.86 92.075 55.645 73.86 55.645 55.645 55.645 55.645 37.43 37.43 37.43 37.43 55.645 37.43 73.86 55.645 73.86 73.86 73.86 73.86 92.075 92.075 92.075 92.075 110.29 110.29 110.29 110.29 128.505 128.505 128.505 146.72 128.505 146.72 146.72 146.72 164.935 164.935 164.935 164.935 183.15 183.15 183.15 183.15 201.365 201.365 201.365 201.365 219.58 219.58 219.58 219.58 146.72"/><polygon class="cls-1" points="274.225 365.301 292.44 365.301 292.44 383.516 310.655 383.516 310.655 401.731 328.871 401.731 328.871 419.946 310.655 419.946 292.44 419.946 292.44 401.731 274.225 401.731 274.225 419.946 274.225 438.161 292.44 438.161 292.44 456.376 274.225 456.376 256.01 438.161 237.795 456.376 219.58 456.376 219.58 438.161 237.795 438.161 237.795 401.731 219.58 401.731 219.58 419.946 183.15 419.946 183.15 401.731 201.365 401.731 201.365 383.516 219.58 383.516 219.58 365.301 237.795 365.301 237.795 274.225 219.58 256.01 183.15 256.01 183.15 274.225 164.935 274.225 146.72 274.225 146.72 292.44 128.505 292.44 128.505 310.655 110.29 310.655 110.29 328.871 92.075 328.871 92.075 310.655 73.86 310.655 73.86 292.44 92.075 292.44 110.29 292.44 110.29 274.225 110.29 256.01 92.075 256.01 92.075 274.225 55.645 274.225 55.645 219.58 92.075 219.58 92.075 237.795 110.29 237.795 110.29 219.58 110.29 201.365 92.075 201.365 73.86 201.365 73.86 183.15 92.075 183.15 92.075 164.935 110.29 164.935 110.29 183.15 128.505 183.15 128.505 201.365 146.72 201.365 146.72 219.58 164.935 219.58 183.15 219.58 183.15 237.795 219.58 237.795 237.795 219.58 237.795 128.505 219.58 128.505 219.58 110.29 201.365 110.29 201.365 92.075 183.15 92.075 183.15 73.86 201.365 73.86 219.58 73.86 219.58 92.075 237.795 92.075 237.795 73.86 237.795 55.645 219.58 55.645 219.58 37.43 237.795 37.43 256.01 55.645 274.225 37.43 292.44 37.43 292.44 55.645 274.225 55.645 274.225 92.075 292.44 92.075 292.44 73.86 328.871 73.86 328.871 92.075 310.655 92.075 310.655 110.29 292.44 110.29 292.44 128.505 274.225 128.505 274.225 219.58 292.44 237.795 328.871 237.795 328.871 219.58 347.086 219.58 365.301 219.58 365.301 201.365 383.516 201.365 383.516 183.15 401.731 183.15 401.731 164.935 419.946 164.935 419.946 183.15 438.161 183.15 438.161 201.365 419.946 201.365 401.731 201.365 401.731 219.58 401.731 237.795 419.946 237.795 419.946 219.58 456.376 219.58 456.376 274.225 419.946 274.225 419.946 256.01 401.731 256.01 401.731 274.225 401.731 292.44 419.946 292.44 438.161 292.44 438.161 310.655 419.946 310.655 419.946 328.871 401.731 328.871 401.731 310.655 383.516 310.655 383.516 292.44 365.301 292.44 365.301 274.225 347.086 274.225 328.871 274.225 328.871 256.01 292.44 256.01 274.225 274.225 274.225 365.301"/><polygon class="cls-1" points="237.795 237.795 256.01 219.58 274.225 237.795 274.225 256.01 256.01 274.225 237.795 256.01 237.795 237.795"/><polyline class="cls-1" points="511.021 1 511.021 492.806 1 492.806 1 1 511.021 1 492.806 1 492.806 19.215"/><line class="cls-1" x1="474.59074" y1="19.21503" x2="474.59074" y2="1"/><line class="cls-1" x1="456.37572" y1="19.21503" x2="456.37572" y2="1"/><line class="cls-1" x1="438.16069" y1="19.21503" x2="438.16069" y2="1"/><line class="cls-1" x1="419.94566" y1="19.21503" x2="419.94566" y2="1"/><line class="cls-1" x1="401.73063" y1="19.21503" x2="401.73063" y2="1"/><line class="cls-1" x1="383.5156" y1="19.21503" x2="383.5156" y2="1"/><line class="cls-1" x1="365.30057" y1="19.21503" x2="365.30057" y2="1"/><line class="cls-1" x1="347.08554" y1="19.21503" x2="347.08554" y2="1"/><line class="cls-1" x1="328.87052" y1="19.21503" x2="328.87052" y2="1"/><line class="cls-1" x1="310.65549" y1="19.21503" x2="310.65549" y2="1"/><line class="cls-1" x1="292.44046" y1="19.21503" x2="292.44046" y2="1"/><line class="cls-1" x1="274.22543" y1="19.21503" x2="274.22543" y2="1"/><line class="cls-1" x1="256.0104" y1="19.21503" x2="256.0104" y2="1"/><line class="cls-1" x1="237.79537" y1="19.21503" x2="237.79537" y2="1"/><line class="cls-1" x1="219.58034" y1="19.21503" x2="219.58034" y2="1"/><line class="cls-1" x1="201.36531" y1="19.21503" x2="201.36531" y2="1"/><line class="cls-1" x1="183.15029" y1="19.21503" x2="183.15029" y2="1"/><line class="cls-1" x1="164.93526" y1="19.21503" x2="164.93526" y2="1"/><line class="cls-1" x1="146.72023" y1="19.21503" x2="146.72023" y2="1"/><line class="cls-1" x1="128.5052" y1="19.21503" x2="128.5052" y2="1"/><line class="cls-1" x1="110.29017" y1="19.21503" x2="110.29017" y2="1"/><line class="cls-1" x1="92.07514" y1="19.21503" x2="92.07514" y2="1"/><line class="cls-1" x1="73.86011" y1="19.21503" x2="73.86011" y2="1"/><line class="cls-1" x1="55.64509" y1="19.21503" x2="55.64509" y2="1"/><line class="cls-1" x1="37.43006" y1="19.21503" x2="37.43006" y2="1"/><polyline class="cls-1" points="511.021 19.215 492.806 19.215 492.806 474.591"/><line class="cls-1" x1="511.0208" y1="37.43006" x2="492.80577" y2="37.43006"/><line class="cls-1" x1="511.0208" y1="55.64509" x2="492.80577" y2="55.64509"/><line class="cls-1" x1="511.0208" y1="73.86011" x2="492.80577" y2="73.86011"/><line class="cls-1" x1="511.0208" y1="92.07514" x2="492.80577" y2="92.07514"/><line class="cls-1" x1="511.0208" y1="110.29017" x2="492.80577" y2="110.29017"/><line class="cls-1" x1="511.0208" y1="128.5052" x2="492.80577" y2="128.5052"/><line class="cls-1" x1="511.0208" y1="146.72023" x2="492.80577" y2="146.72023"/><line class="cls-1" x1="511.0208" y1="164.93526" x2="492.80577" y2="164.93526"/><line class="cls-1" x1="511.0208" y1="183.15029" x2="492.80577" y2="183.15029"/><line class="cls-1" x1="511.0208" y1="201.36531" x2="492.80577" y2="201.36531"/><line class="cls-1" x1="511.0208" y1="219.58034" x2="492.80577" y2="219.58034"/><line class="cls-1" x1="511.0208" y1="237.79537" x2="492.80577" y2="237.79537"/><line class="cls-1" x1="511.0208" y1="256.0104" x2="492.80577" y2="256.0104"/><line class="cls-1" x1="511.0208" y1="274.22543" x2="492.80577" y2="274.22543"/><line class="cls-1" x1="511.0208" y1="292.44046" x2="492.80577" y2="292.44046"/><line class="cls-1" x1="511.0208" y1="310.65549" x2="492.80577" y2="310.65549"/><line class="cls-1" x1="511.0208" y1="328.87052" x2="492.80577" y2="328.87052"/><line class="cls-1" x1="511.0208" y1="347.08554" x2="492.80577" y2="347.08554"/><line class="cls-1" x1="511.0208" y1="365.30057" x2="492.80577" y2="365.30057"/><line class="cls-1" x1="511.0208" y1="383.5156" x2="492.80577" y2="383.5156"/><line class="cls-1" x1="511.0208" y1="401.73063" x2="492.80577" y2="401.73063"/><line class="cls-1" x1="511.0208" y1="419.94566" x2="492.80577" y2="419.94566"/><line class="cls-1" x1="511.0208" y1="438.16069" x2="492.80577" y2="438.16069"/><line class="cls-1" x1="511.0208" y1="456.37572" x2="492.80577" y2="456.37572"/><line class="cls-1" x1="511.0208" y1="474.59074" x2="492.80577" y2="474.59074"/><line class="cls-1" x1="1" y1="37.43006" x2="19.21503" y2="37.43006"/><line class="cls-1" x1="1" y1="55.64509" x2="19.21503" y2="55.64509"/><line class="cls-1" x1="1" y1="73.86011" x2="19.21503" y2="73.86011"/><line class="cls-1" x1="1" y1="92.07514" x2="19.21503" y2="92.07514"/><line class="cls-1" x1="1" y1="110.29017" x2="19.21503" y2="110.29017"/><line class="cls-1" x1="1" y1="128.5052" x2="19.21503" y2="128.5052"/><line class="cls-1" x1="1" y1="146.72023" x2="19.21503" y2="146.72023"/><line class="cls-1" x1="1" y1="164.93526" x2="19.21503" y2="164.93526"/><line class="cls-1" x1="1" y1="183.15029" x2="19.21503" y2="183.15029"/><line class="cls-1" x1="1" y1="201.36531" x2="19.21503" y2="201.36531"/><line class="cls-1" x1="1" y1="219.58034" x2="19.21503" y2="219.58034"/><line class="cls-1" x1="1" y1="237.79537" x2="19.21503" y2="237.79537"/><line class="cls-1" x1="1" y1="256.0104" x2="19.21503" y2="256.0104"/><line class="cls-1" x1="1" y1="274.22543" x2="19.21503" y2="274.22543"/><line class="cls-1" x1="1" y1="292.44046" x2="19.21503" y2="292.44046"/><line class="cls-1" x1="1" y1="310.65549" x2="19.21503" y2="310.65549"/><line class="cls-1" x1="1" y1="328.87052" x2="19.21503" y2="328.87052"/><line class="cls-1" x1="1" y1="347.08554" x2="19.21503" y2="347.08554"/><line class="cls-1" x1="1" y1="365.30057" x2="19.21503" y2="365.30057"/><line class="cls-1" x1="1" y1="383.5156" x2="19.21503" y2="383.5156"/><line class="cls-1" x1="1" y1="401.73063" x2="19.21503" y2="401.73063"/><line class="cls-1" x1="1" y1="419.94566" x2="19.21503" y2="419.94566"/><line class="cls-1" x1="1" y1="438.16069" x2="19.21503" y2="438.16069"/><line class="cls-1" x1="1" y1="456.37572" x2="19.21503" y2="456.37572"/><polyline class="cls-1" points="1 474.591 19.215 474.591 19.215 492.806"/><line class="cls-1" x1="37.43006" y1="474.59074" x2="37.43006" y2="492.80577"/><line class="cls-1" x1="55.64509" y1="474.59074" x2="55.64509" y2="492.80577"/><line class="cls-1" x1="73.86011" y1="474.59074" x2="73.86011" y2="492.80577"/><line class="cls-1" x1="92.07514" y1="474.59074" x2="92.07514" y2="492.80577"/><line class="cls-1" x1="110.29017" y1="474.59074" x2="110.29017" y2="492.80577"/><line class="cls-1" x1="128.5052" y1="474.59074" x2="128.5052" y2="492.80577"/><line class="cls-1" x1="146.72023" y1="474.59074" x2="146.72023" y2="492.80577"/><line class="cls-1" x1="164.93526" y1="474.59074" x2="164.93526" y2="492.80577"/><line class="cls-1" x1="183.15029" y1="474.59074" x2="183.15029" y2="492.80577"/><line class="cls-1" x1="201.36531" y1="474.59074" x2="201.36531" y2="492.80577"/><line class="cls-1" x1="219.58034" y1="474.59074" x2="219.58034" y2="492.80577"/><line class="cls-1" x1="237.79537" y1="474.59074" x2="237.79537" y2="492.80577"/><line class="cls-1" x1="256.0104" y1="474.59074" x2="256.0104" y2="492.80577"/><line class="cls-1" x1="274.22543" y1="474.59074" x2="274.22543" y2="492.80577"/><line class="cls-1" x1="292.44046" y1="474.59074" x2="292.44046" y2="492.80577"/><line class="cls-1" x1="310.65549" y1="474.59074" x2="310.65549" y2="492.80577"/><line class="cls-1" x1="328.87052" y1="474.59074" x2="328.87052" y2="492.80577"/><line class="cls-1" x1="347.08554" y1="474.59074" x2="347.08554" y2="492.80577"/><line class="cls-1" x1="365.30057" y1="474.59074" x2="365.30057" y2="492.80577"/><line class="cls-1" x1="383.5156" y1="474.59074" x2="383.5156" y2="492.80577"/><line class="cls-1" x1="401.73063" y1="474.59074" x2="401.73063" y2="492.80577"/><line class="cls-1" x1="419.94566" y1="474.59074" x2="419.94566" y2="492.80577"/><line class="cls-1" x1="438.16069" y1="474.59074" x2="438.16069" y2="492.80577"/><line class="cls-1" x1="456.37572" y1="474.59074" x2="456.37572" y2="492.80577"/><line class="cls-1" x1="474.59074" y1="474.59074" x2="474.59074" y2="492.80577"/><polyline class="cls-1" points="492.806 492.806 492.806 474.591 19.215 474.591 19.215 19.215 1 19.215"/><polyline class="cls-1" points="492.806 19.215 19.215 19.215 19.215 1.353"/></svg>