<svg version="1.1" id="Layer_1" xmlns="http://www.w3.org/2000/svg" x="0" y="0" viewBox="0 0 1153.3 1664" xml:space="preserve"><style>.st0{fill:none;stroke:#ffffffaa;stroke-miterlimit:10;stroke-width:2px}</style><path class="st0" d="M564.1 562.7h37.5v7.3h15v14.5h7.4v29h-7.4v14.6h-15v-14.6h-7.5v-7.2h-7.5V599h-7.5v-7.2h-7.5v-14.6h-7.5z"/><path class="st0" d="m698.5 607.2 25.9.2.1-50.1h7.6v-40.7h-7.6v-7.4h-17.3v-7.4h9.5v-7.4h.1v-.2h8.3l-.1-10.3 7.1-.1v-11.7l7.8-.2-.2-7.2h7.7v-7.4h7.6v-8.8l30.9-.2-.3-35.4v-7.4h-7.7v-7.4h-30.5v-7.5h-7.7v-7.4h-7.6l-7.6.2-23-.2h-7.6v7.4h-7.6v-7.4h-7.7v-14.8H671v-14.8h-7.6v-14.8h-7.7v-29.6h7.7v-7.4h7.6l-.1-22.3h-61.8v15.8l-12.3.1v-15.9h-17.5v-22.9h-38.1v22.9H523v15.4h-11.5v-15.4h-54.4l-7.5.2-.1 22.1h7.6v7.4h7.7v29.6h-7.7v14.8h-7.6v14.8h-7.6v14.8h-7.7v7.4h-7.6v-7.4h-45.8v7.4h-7.7v7.5h-30.5v7.4H335V449h30.8l-.3 8.3h7.6v7.4h7.7l.2 7.4h7.4V487l11 .2v7.4h9v7.4l7 .1v7.5l-19.4-.4v7.4h-7.6v37l7.6.2.3 54H423l-.4-13.5h8.5l-.2-6.9 9-.3.1-8.2h47.7v11.8h-7.6v22.2h7.6v14.8h7.6v8.5h7.7v9.3h15.2l.3-9.3H532l-.1-12.2 9.2-.1.1 8.5h41.5l.2-9.2h9.2l.1 13.8h10.1v9.5h15.2v-9.2h7.7v-9.6h7.6v-14.8h7.7v-22.2h-7.7l.4-11.6h49.4l-.1 7.6 9 .3-.1 8.6"/><path class="st0" d="M620 293.9h34v7.3h-7.5v14.5H639v21.8h7.5V352h7.5v14.6h7.5v14.5h7.5v14.5h7.5v50.9H669v-29.1h-7.5v-14.5h-15v-7.3H624v-29h-7.4v-7.3h-30v-14.5h-7.5V323h7.5v-7.3h7.5v-7.2l25.6-.1z"/><path class="st0" d="M698.9 395.6h30v7.3l7.6-.1-.1 7.3h29.9v7.3h7.5v21.8h-29.9v7.3h-7.5v7.2h-7.5v7.3h-7.5v7.3h-7.5v14.5h-7.5v7.2h-7.5v7.3h-7.4v7.3h-15v7.3H669v7.2h-7.5v7.3h-15v7.2h-29.9v-7.2H639v-7.3h15v-14.5h7.5v-7.3h7.5V490h7.5v-14.5h7.5v-21.8h7.5v-50.8h7.4z"/><path class="st0" d="M676.5 526.4v-7.3h37.4v7.3h7.5v24.4l-7.6-.3-.2 48.5h-7.2v-14.5h-7.5v-7.3h-7.4V570h-15v-7.3h-59.9v-7.3h-22.5v-7.2h37.4l.1-7.3H654v-7.3h15v-7.2zm-112.4 14.5v-21.8h7.5v-7.2h7.5v-7.3h15v-7.3h7.5V490h7.5v-7.2h7.5v29.1h-7.5v7.2h-7.5v14.5h-7.5v7.3h-15v13.4h-15z"/><path class="st0" d="M526.7 482.8v-14.5h7.5v-14.6h7.5v-14.5h7.5v-14.5h-7.5v-7.3h22.4v7.3h7.5v7.2h7.5v7.3h7.5v43.6h-7.5v7.2h15v-7.2h7.5v-7.3h7.5v-7.2H624V490h7.5v14.6H624v14.5h7.5v-7.2h7.5v-7.3h7.5V490h7.5v-14.5h7.5v-50.8H654v-7.3h-7.5v-7.3H639v-7.2h-15v7.2h-14.9v7.3h-7.5v-14.5h7.5v-7.3h7.5v-21.8h-7.5v-7.2h-15v7.2h-15V352h-7.5v-7.2h-22.4v7.2h-7.5v21.8"/><path class="st0" d="M564.1 511.9h-7.4v-7.3h-7.5v-7.2l-7.5-.1V490h-7.5v-14.5h7.5v-7.2h7.5v-21.8h7.5v-14.6h7.4v7.3h7.5v7.3h7.5v29h-7.5v29.1h-7.5zm-63.5-203.1v-14.9h-33.8v7.3h7.5v14.5h7.5v21.8h-7.5V352h-7.5v14.6h-7.5v14.5h-7.5v14.5h-7.5v50.9h7.5v-29.1h7.5v-14.5h15v-7.3h22.4v-29h7.5v-7.3h30v-14.5h7.5V323h-7.5v-7.3h-7.5v-7.2z"/><path class="st0" d="M421.9 395.6h-30v7.3l-7.3.3-.2 6.9h-30v7.3H347v21.8h29.9v7.3h7.5v7.2h7.5v7.3h7.5v7.3h7.5v14.5h7.5v7.2h7.5v7.3h7.4v7.3h15v7.3h7.5v7.2h7.5v7.3h15v7.2h29.9v-7.2h-22.4v-7.3h-15v-14.5h-7.5v-7.3h-7.5V490h-7.5v-14.5h-7.5v-21.8h-7.5v-50.8h-7.4z"/><path class="st0" d="M444.3 526.4v-7.3h-37.4v7.3h-7.5v21.8h7.5l-.7 50.8h8.2v-14.5h7.5v-7.3h7.4V570h15v-7.3h59.9v-7.3h22.5v-7.2h-37.5l.2-7.2-7.6-.1h-15v-7.3h-15v-7.2zm112.4 36.3h-37.5v7.3h-15v14.5h-7.5v29h7.5v14.6h15v-14.6h7.5v-7.2h7.5V599h7.5v-7.2h7.5v-14.6h7.5zm0-21.8v-21.8h-7.5v-7.2h-7.5v-7.3h-15v-7.3h-7.5V490h-7.5v-7.2h-7.5v29.1h7.5v7.2h7.5v14.5h7.5v7.3h15v13.4h15z"/><path class="st0" d="M526.7 482.8h-7.5v-7.3h-7.5v-7.2h-15V490h-7.5v14.6h7.5v14.5h-7.5v-7.2h-7.4v-7.3h-7.5V490h-7.5v-14.5h-7.5v-50.8h7.5v-7.3h7.5v-7.3h7.5v-7.2h14.9v7.2h15v7.3h7.5v-14.5h-7.5v-7.3h-7.5v-21.8h7.5v-7.2h15v7.2h15V352h7.5v-7.2h22.4v7.2h7.5v21.8m-22.4 211.3h7.4V599h7.5v22.2h-22.4V599h7.5zm12.5-291.2h17.5l-.1 13.9h-7.5v7.3h-7.5v21.8h-22.4v-21.8h-7.5v-7.3h-7.5v-13.9h18.1l-.4-22.8h16.9zm122.2 301.7 7.1.1.1 9.7M201.9 391.8v-10.9m22.4 141.3v-10.8m22.3 217.3v-32.6M269 261.4v-10.9m89.5 543.4v-21.7m335.6-21.7v-21.8m33.6-21.7v21.7m-358-554.3v10.9m413.9 499.9v-10.8m11.2-456.5v10.9H806v32.6h-11.2m111.9 173.9v-10.9m11.2 0v-10.9m11.2 10.9-.1-10.9m11.2 43.5v-10.9M929 391.8v10.9h-11.1v10.8m-11.2-21.7h-22.4v10.9h-11.2v10.8h11.2v-10.8h22.4v-10.9m123 0h22.4v10.9h-22.4zm22.4 10.9h11.2v10.9h-11.2zm56 163h-33.6v-10.9h-11.2V544h-11.2v-32.6h-11.2v-43.5h-11.2v-32.6h-11.2v-10.9h-11.1v108.7h11.1v21.7h11.2v10.9h-11.2m-11.1-163v10.8h-11.2v32.6H985V457h-11.2v21.8h-11.2V457h-11.2v-10.9h-11.2v-32.6H929v-10.8h22.4v-10.9H985v10.9zm-44.8 97.8h11.2v10.9h-11.2z"/><path class="st0" d="M1018.5 554.8v54.4h-11.1v-10.9h-11.2v10.9H985v21.7h-11.2v21.7h-11.2v-21.7h-11.2v-21.7h-11.2v-10.9h-11.1v10.9h-11.2v-54.4h11.2V457h11.1v21.8h11.2v76h11.2v10.9h11.2v-10.9H985v-76h11.2V457h11.2v97.8zm-123 119.6h11.2v21.7h-11.2zm11.2 21.7h11.2V707h-11.2zm-33.6-43.5v-10.8h11.2"/><path class="st0" d="M828.4 565.7h33.5v-10.9h11.2V544h11.2v-32.6h11.2v-43.5h11.2v-32.6h11.2v-10.9h11.2v108.7h-11.2v21.7h-11.2v10.9m-89.5 195.6h11.2v10.9h-11.2zm201.3-347.8h11.2v10.9h-11.2zm11.2-32.6v10.9H985v-10.9h-11.2v-10.8h-11.2v10.8h-11.2v10.9h-44.7v-10.9h33.5v-21.7H929v-10.9h-11.1v-21.7H929v10.9h11.2v10.8h11.2v10.9H985v-10.9h11.2v-10.8h11.2v-10.9h11.1v21.7h-11.1v10.9h-11.2v21.7zM224.3 707v10.9h-22.4V707h-11.2v-10.9h-22.4v-10.9h-22.4v-10.8h-11.1v-10.9m123-532.6v97.9h-11.2V207h-11.2v-10.9h-11.2v-21.7h-11.1v-21.7h11.1v-10.9h11.2v-21.7h-11.2v-10.9h-11.1V98.3h-11.2V87.5m123 130.4h-22.3v10.9h-11.2v10.8h-11.2v10.9H269V207h11.2v-54.3H269v-21.8h-11.2V98.3h22.4v21.8h11.2v21.7h22.4v-21.7h11.1v21.7h11.2v43.5h-11.2V207m-67.1 32.6v32.6h-11.2v32.6h-11.2v-21.7h-11.2v-43.5h11.2v10.9h11.2v-10.9zm78.3 32.6v10.9h-44.7V294H269v10.8h-11.2v-32.6H269v-10.8h44.8v10.8zm-100.7 65.2V370h-11.2v10.9h-22.3V370h-22.4v-10.8h-11.2V370h-22.4v10.9h-22.3V370h-11.2v-32.6h33.5v-32.6h56v32.6z"/><path class="st0" d="M179.5 391.8v32.6h-11.2v-32.6h-11.2v-10.9h11.2V370h11.2v10.9h11.2v10.9zM34.1 380.9V370h11.1v-10.8h33.6V370H90v21.8h11.2v21.7h11.2v10.9h11.2v-10.9h22.3v10.9h11.2v43.5h-11.2v43.5h11.2v10.8h-22.3v-10.8h-22.4m78.3-119.6h11.2v21.7h-11.2z"/><path class="st0" d="M179.5 424.4h11.2v43.5h-11.2zm-22.4 43.5v43.5m11.2 10.8h11.2v10.9h-11.2zm123.1-10.8v10.8h-33.6v10.9h-11.2V544h-33.5v-10.9h11.2v-10.9h11.1v-10.8h11.2v-10.9h33.6v10.9zm-33.6 76v10.9h-22.4v-10.9h-33.5v-21.7h-11.2V544h22.4v10.8h11.2v10.9h22.3v21.7zm-134.2-65.2h11.2v10.9h-11.2zm44.7 43.5v-10.9h11.2v21.8h-11.2v10.8h-11.2v21.8h-22.3v-10.9h11.1v-21.7h11.2v-10.9m33.6 0h-11.2"/><path class="st0" d="M213.1 598.3h-11.2V620h-11.2v-10.8h-11.2v-10.9h11.2v-32.6M682.9 76.6v21.7h-11.2v21.8h-22.3v-10.9h11.1V76.6h-11.1V65.7h-11.2V54.9h-22.4V44h44.7v21.7h11.2v10.9z"/><path class="st0" d="M627 33.1h44.7V44h11.2v10.9h-22.4m-89.4 21.7h-11.2v10.9m290.8 141.3v-10.9h-22.3V207H806v-10.8h-22.4v-10.9h-11.2v-10.9h-11.2v-10.8h-22.3v-10.9h-22.4v-10.9h-22.4v-21.7h22.4v-10.9h11.2V98.3h11.2V87.5h11.2V76.6H806v21.7h-22.4v10.9h-11.2v10.9h11.2v10.8H806v-10.8h44.7v32.6h-33.5v10.9H806v10.8h11.2v10.9h44.7v10.9h11.2V207h22.4v10.9h22.4m-358-130.4v10.8h-11.2v10.9h-11.2V87.5z"/><path class="st0" d="M559.9 87.5h11.2V54.9h33.5v10.8h-11.2v10.9h-11.2v32.6h-33.5m-145.5 32.6v10.9H392m-11.1 10.8v10.9h-11.2m11.2-10.9H392v-10.8m-22.3 32.6v-10.9M470.4 65.7V54.9h-11.2V44h22.3v10.9h11.2v21.7h11.2V65.7h22.4v10.9h-11.2v21.7h-11.2v10.9h-33.5v10.9h-11.2v21.7h11.2m-11.2 97.8H448v-10.8h-11.2v-10.9h-67.1v10.9h-44.8v-10.9M269 261.4h-11.2m0 65.2h-11.2M235.4 370h11.2v21.8h-11.2zM929 413.5h-11.1m-783.1-21.7v10.9h-11.2v10.8h-11.2v-21.7zm783.1 32.6h-11.2m33.5 0h-11.1m11.1 10.9h-11.1m11.1 10.8h-11.1"/><path class="st0" d="M190.7 424.4h11.2v-10.9h22.3l.1 10.9h11.1v-10.9h11.2v-21.7h11.2V370H269v-10.8h33.6V370h11.2v10.9m-89.5 141.3h-11.2m604.1 32.6h11.2v10.9m-56 130.4h-11.2m-44.7 21.7h22.4m179-10.8h11.2v10.9h-11.2zm-671.3 21.7H269m436.3 10.9h-22.4m-391.5 21.7h55.9m-44.7 10.9h55.9m0 10.9h-44.7m0-184.8v86.9h-11.2v65.3h-22.4v-10.9H269v-43.5h11.2v-10.9h11.2v-54.3h11.2v-32.6zm33.5 65.2h11.2v10.9h-11.2zm33.6-21.7v43.4h-11.2v-21.7h-11.2v-10.9h11.2v-10.8zM235.4 750.5v-21.8h11.2v10.9h11.2v10.9m-22.4 0H269m-55.9-65.3h11.2v21.7h-11.2zm223.7-663v32.7h-11.2V33.1h-22.4v21.8h-44.7V33.1h-22.4v21.8h-55.9V33.1h-22.4v21.8h-44.7V33.1h-22.4v21.8h-44.8V33.1h-22.3v21.8H78.8V33.1H56.4V44h11.2v21.7H45.2V54.9H34v21.7h22.4v43.5H34v21.7h22.4v43.5H34v10.8l.1 10.9h22.3v43.5H34.1v21.7h22.3v43.5H34.1v21.7H22.9v-32.6h22.3v-21.7H22.9v-43.5h22.3v-21.7H22.9v-43.5h22.3v-21.7H22.9v-43.5h22.3V87.5H22.9V22.2H90V44h22.4V22.2h44.7V44h22.4V22.2h44.7V44h22.4V22.2h44.8V44h33.5V22.2h44.8V44H392V22.2zm78.3 760.9h11.2V794h-11.2z"/><path class="st0" d="M1152.8 848.3V.5H.5v847.8m11.2-10.4V11.5l1129.7-.6h1.4v826.2"/><path class="st0" d="M615.8 761.3H627V783h-11.2zm11.2 21.8h22.4V794H627z"/><path class="st0" d="M649.4 804.8v10.9h-33.6v-10.9h-11.2v-10.9h-33.5v-32.6h33.5v21.8h11.2v10.8H627v10.9zm44.7-10.9v21.8h-22.3v-10.9h-11.2v-76.1h11.2v10.9h11.1v10.9h-11.1v32.6h11.1v10.8zm11.2-108.7h11.2v10.9h-11.2zm-11.2 10.9h11.2V707h-11.2zm22.4 0h22.4V707h-22.4zM705.3 707h11.2v21.7h-11.2zm33.6 0h11.2v21.7h-11.2z"/><path class="st0" d="M1142.8 837.2V10.9l-1131.2.6v826.4m11.3-533.1h22.3v-21.7H22.9v-43.5h22.3v-21.7H22.9v-43.5h22.3v-21.7H22.9v-43.5h22.3V87.5H22.9V22.3H90V44h22.4V22.3h44.8V44h22.4V22.3h44.7V44h22.4V22.3h44.8V44H325V22.3h44.8V44H392V22.3h44.8v32.6h-11.2V33.1h-22.4v21.7h-44.7V33.1h-22.4v21.7h-55.9V33.1h-22.4v21.7H213V33.1h-22.4v21.7h-44.7V33.1h-22.4v21.7H78.8V33.1H56.4V44h11.2v21.7H448v10.9H78.8v260.9H67.6V65.7H45.2V54.9H34v21.7h22.4v43.5H34v21.7h22.4v43.5H34V207h22.4v43.5H34.1v21.8h22.4v43.5H34.1v21.7H22.9zm167.8-65.2v43.5h-11.2v-32.6h-11.2v-10.9h-11.2v-10.9h-11.2v-10.9h-11.2v-32.6h11.2v-10.9h11.2v10.9h-11.2v10.9h11.2V207h11.2v10.9h11.2v21.7zm-167.8 750V957h22.4v-21.7H22.9v-43.5h22.4V870H22.9v-43.2h22.4v-22H22.9v-43.5h22.4v-21.8H22.9V696h22.4v-21.7H22.9v-43.5h22.4v-21.7H22.9v-43.5h22.4V544H22.9v-43.5h22.4v-21.7H22.9v-43.5h22.4v-21.7h11.2v32.6H34.1v21.7h22.4v43.5H34.1v21.7h22.4v43.5H34.1v21.7h22.4v43.5H34.1v21.7h22.4V707H34.1v21.7h22.4v43.5H34.1v21.7h22.4v43.5H34.1v21.7h22.4v32.6m22.3-249.9v-10.9H67.6v-43.5h11.2v-10.9h33.6v10.9H78.8V620h22.4v32.6H90v10.9H67.6v-10.9H90v-10.9zm391.6 141.3h-44.8v-10.9h44.8zm0-32.6h-11.2v-10.9h-22.4v10.9h-11.2v10.9h-11.2v43.5h11.2v10.9H448v10.9h-44.7v-10.9h-33.6v-10.9h-22.4V794h-33.6v-10.9h-11.2v-10.9h-11.2v-10.9h-11.2v-10.9H269v10.9h-33.6v-10.9h-44.8v-10.9h-22.4v-10.9H157v-10.9h-11v10.9h-22.4v10.9h-11.2v10.9h11.2v10.9h-22.4v-32.6h11.2v-10.9H146V707h-11.2v-10.9h-11.2v-43.5h11.2v10.9h44.7v10.9h22.4v10.9h11.2v-21.8h-11.2v-32.6h-11.2V620h-11.2v-10.9h-11.2V620h-33.6v10.9h-11.2v-54.3h11.2v-10.9h-22.4v-10.9H90V544H78.8v-10.9H67.6v-10.8h11.2v-10.9h33.6v-21.7h-11.2v-43.5H90v-21.7H78.8v-21.7H67.6v-10.9H56.4V381H34.1v10.9H22.9V370h11.2v-10.9h11.1v-10.9h33.6v10.9H90V370h11.2v-32.6h11.2v-10.9h22.4v-21.7H146V294h55.9v10.9h11.2v21.7h22.4v10.9h11.2v-32.6h-11.2v10.9h-11.2v-32.6H213v-54.3h-11.2V218h22.3v10.9h11.2V207h-11.2v-10.9H213v-21.7h-11.2v-21.7h-11.2v-10.9h-11.2v-10.9H213v10.9h11.2v-21.7H213v-10.9h-11.2V98.3h-11.2V87.5h44.8v10.9h11.2v21.7h11.2V98.3h22.4V120h11.2v21.7h22.4V120H325v-10.9h11.2V98.3h11.2v10.9h-11.2v32.6h11.2v54.4h-11.2V207H325v10.9h22.4V207h22.4v-10.9h33.5v-10.9h78.3v10.9H504V207h11.2v32.6H504v-10.9h-11.2v-10.9h-22.4V207H448v10.9h11.2v32.6H448v-10.9h-11.2v-10.9H392v10.9h11.1v10.9h11.2V294h-11.2v-10.9H392v-10.8h-11.2v-10.9h-67.1v10.9h22.4v10.9h11.2v21.7h-11.2V294h-44.7v10.9H269v10.9h-11.2v21.7h-11.2V370h11.2v-10.9H269v-10.9h33.6v10.9h11.2V370H325v21.8h-11.2v-10.9h-22.4v10.9h-11.2v10.9H269v21.7h-11.2v21.7h-11.2v43.5h-11.2v21.7h11.2v-10.9h11.2v-10.9h55.9v10.9h11.2v10.9h-11.2v10.9h-11.2v10.9h-11.2V544h-11.2v10.9h-33.6v10.9H269v21.7h11.2v32.6H269v-10.9h-44.7v-10.9h-11.2V620h11.2v43.5h11.2v32.6h11.2v-43.4h11.2v10.9H269v21.8h11.2V631h11.2v-32.6h11.2v-10.8h11.2v-10.9h33.6v10.9h-11.2v43.5h11.2v32.6h11.2v-10.9h11.2v-10.9H381v43.5h-11.2V707h-11.2v21.7h-11.2v32.6h11.2v10.9h11.2v21.7H381v10.9h11.2V696.1h11.2v21.7h22.4V707h33.6v10.9h11.2zm-402.8-250v-65.2h11.2v65.2zM1074.4 783v108.7-293.4h11.2v184.8m-55.9-97.8v-10.9h-22.4v10.9h-11.2v-10.9h11.2v-10.9h33.6v10.8h11.2v54.3H1041v10.9h-56v-10.9h44.8v-10.9h11.2v-32.6h-11.3zm100.7-206.5H1108v21.7h22.4v32.6h-11.2v-21.8h-22.4v-43.5h22.4v-21.7h11.2zm-559.3 163v21.7h44.8v10.8h33.6v10.9h11.2v10.9h11.2v-10.9h22.4v-21.8h11.2v-10.9h44.8v10.9h11.2v21.8h11.2v-10.9h22.4v10.9H806v-21.8h22.4v-10.9h11.2v-10.9h11.2v-10.9H862V620h11.2v-21.8h11.2v-10.8h-44.8v-10.9h-11.2v-10.9h-11.2V544h11.2v10.9H862V544h11.2v-32.6h11.2v-43.5h11.2v-32.6h-11.2v10.9h-67.1v-10.9H806v-10.9h11.2v-10.9h11.2v-10.9h11.2v-10.9h11.2v-10.9h22.4v-10.9h33.5V359h-11.2v-10.9h-11.2V294h-11.2v-21.7h-11.2v-10.9h-11.2v-10.9h-11.2v-10.9h-11.2v21.7h11.2v54.3h-11.2v21.7h-11.2v10.9H806v10.9h-44.8v-10.9h22.4v-10.9h11.2v-21.7H806V294h-11.2v10.9h-22.4V294h11.2v-32.6h11.2v-32.6h-11.2V207h-11.2v54.3h-11.2v10.9h-33.5v-10.9h11.2v-43.5h-11.2V207h-11.2v10.9h-11.2v10.9h-11.2v-10.9h11.2v-21.7h-11.2v-10.9h-11.2v-10.9h-11.2v-10.9h-22.4v-10.9h-55.9v-10.9H470.3v10.8h11.2v21.7h-11.2v-10.9h-11.1v-10.9h-22.4v10.9h-22.4v10.9H392v10.9h-33.6v-10.9h11.2v-10.9h11.2v-10.9H392v-10.9h11.1v-32.6H392V98.3h11.1v10.9h11.2v21.7h22.4V120H448v-10.9h11.2V98.3h11.2V87.5h11.2V65.7h-22.4V54.9H448V44h33.5v10.9h11.2v21.7h11.2V65.7h22.4v10.9h-11.2v21.7h-11.2v10.9h22.4V87.5h11.2V76.6h22.4V65.7h-11.2V54.9h-11.2V44h11.2V33.1h11.2V22.3h33.6v10.9h11.2V44h11.2V33.1H627V22.3h44.8v10.9h22.4v21.7H683v10.9h22.4v10.9h11.2v21.7h11.2V76.6h22.4V65.7h67.2v32.6H806v10.9h44.8v10.9H862V131h11.2v10.9H862v10.9h-11.2v10.9h-33.5v10.9H862v10.9h11.2v10.9h22.4V207H918v-10.8h11.2v-10.9h11.1V207h-11.2v10.9h-11.2v10.9h-67.1v10.9H862v10.9h11.2v10.9h11.2V294h11.2v-10.9h11.2v-10.8H918v10.9h11V294h11.2v10.9h11.2v21.7h11.2v32.6h11.2v-32.6H985v-21.7h11.2V294h11.2v-10.9h11.2v-10.8h11.2v10.9h11.2V294h11.2v54.3H1041v10.9h-11.2v10.9h33.6V381h22.4v10.9h11.2v10.9h11.2v10.9h11.1v10.9h11.2v10.8H1108v10.9h-55.9v-10.9h-11.2V468h11.2v43.5h11.2V544h11.2v-87h11.2v87h-11.2v10.9h33.6V544h11.2v21.7H1108v10.9h-11.2v10.9h-44.7v-10.9h-11.2v-10.9h-11.2V620h-11.2v10.9h-11.2v-21.7h-11.1v21.7H985v21.7h-11.2v10.9h-11.2v-10.9h-11.2v-21.7h-11.2v-21.7H929v21.7h-11.2V620h-11.2v-54.4h-11.2v10.9h-11.2v10.9h11.2V620h-11.2v54.3h11.2v-43.5h11.2v21.7h11.2v10.9H929v10.8h11.2v10.9h11.2V696h11.2v21.7h11.2v43.4h-11.2v-10.8H929v-10.9h-22.4v-10.9h-11.2v-10.9h-11.2v-21.7H873v-43.5h-11.2v10.9h-11.2v21.8h11.2V707H873v10.9h-11.2V707h-11.2v-10.9h-11.2v-21.7h-11.2v10.9H806v43.5h11.2v-10.9h11.2v10.9h11.2v10.9h11.2v54.4h-11.2V805h-11.2v-10.9H806v-32.6h11.2v-10.9H806v-21.7h-11.2v10.9h-11.2v10.9h11.2v32.6h-11.2v10.9H750v10.9h11.2V816h11.2v10.9h-33.5V816h-11.2v-10.9h-11.2v-10.9h-11.2v21.7h-11.2v10.9h-22.4v-10.9h-22.4v10.9h-33.6v-10.9h-11.2V805h-33.6v10.9h-22.4v10.9h-33.6v-10.9h-11.2V805h-11.2v-10.9h-11.2v-32.6h11.2v-21.7h11.2v10.9h11.2v10.9h11.2v10.9h22.4v21.7h11.2v-32.6h11.2v-10.9h-22.4v-10.9h-11.2v-10.9h-11.2v-43.5h11.2v10.9h33.5V707H582v32.6h-11v10.9h33.6v-10.9h-11.1v-21.7h11.2V707h33.6v10.9h11.2v10.9h11.2v-32.6h-44.8v-10.8h-22.4v-10.9h-41.8V631h8.3m436.2-521.7v10.9h11.2V131h11.2v65.2h-11.2v21.7h-11.2v10.8H985v10.9h-22.4v10.9h-78.3v-10.9H929v-10.9h22.4v-10.9h11.2v-43.5h-11.2v-10.9h22.4v10.9H985V196h11.2v-43.5H985v-21.7h-11.2v-10.9H929v10.9h-11.2v-21.7H929V98.4h44.8v10.9zm134.3-21.8h-22.4v21.7h22.4v43.5h-22.4v21.7h22.4v43.5h-22.4v21.7h22.4v43.5h-22.4v21.7h22.4v43.5h-22.4V370h22.4v32.6h-11.2v-21.8h-22.4v-43.5h22.4v-21.7h-22.4v-43.4h22.4v-21.8h-22.4V207h22.4v-21.8h-22.4v-43.4h22.4v-21.7h-22.4V76.6h22.4V54.9H1108v10.9h-22.4v304.3h-11.2V76.6h-246V65.7h257.3V44h11.2V33.2h-22.4v21.7h-44.7V33.2h-22.4v21.7h-44.8V33.2h-22.4v21.7h-44.7V33.2h-22.4v21.7h-44.8V33.1H806v21.7h-44.8V33.1h-22.3v21.7h-33.6V44h22.4V22.3h44.7V44h22.4V22.3h44.8V44H862V22.3h44.7V44H929V22.3h44.8V44h22.4V22.3h44.7V44h22.4V22.3h67.1v65.2z"/><path class="st0" d="M459.2 130.9h11.2v10.9h-11.2zM134.8 533.1h22.4V544h-22.4zm0 0V544"/><path class="st0" d="M157.1 554.8h-44.7V544h-11.2v-21.8m615.3 239.1h11.2v10.9h-11.2zm0 21.8h11.2v-10.9h11.2v10.9h11.2v10.8h-33.6m-358 10.9v-10.9m-167.8-413h11.2m-44.8 0h-11.2v10.9h-11.1m436.3 413h-11.2v-10.9h11.2m-111.9-54.3h11.2m-11.2 0v-10.9h-22.4v10.9m0 0h-11.2v10.9h-11.1v10.8m0 43.5h-11.4v-43.5h11.4m0 43.5v10.9h11.1m-67.1-32.6h11.2m-33.6-32.6v43.4m11.2-32.6v32.6h22.4m-44.8 0v-43.4m-11.1 0v32.6m33.5-54.4h-11.2v21.8h-22.3m22.3 0h11.2m0-87h-11.2v-32.6m-22.3-43.5h11.1v43.5h11.2m33.6 54.3h-11.2V707h-11.2v21.7m-33.5-141.3v10.9m0 86.9v65.3h-11.2m0 21.7v-21.7m-11.2 0v10.8m-33.6-97.8v32.6m-11.2-21.7H269m-23.6 10.8H269m0 0v10.9m0 0h-22.4m11.2 0v43.5m0 0H269v10.9m-33.6-32.6h11.2M224.3 707h11.1v21.7m-11.1-10.8h11.1"/><path class="st0" d="M157.1 685.2v10.9h11.2V707h22.4v10.8l11.2.1v10.8h33.5m-78.3-10.8 11.2-.1v10.9m0 0h22.4v10.9m44.7 0h-44.7m-87.8-217.4h9.5M246.6 544v10.8h-22.3m346.8 239.1v10.9m33.5-65.2h11.2v10.9m-11.2-32.7v21.8m0-21.8h33.6m-33.6 32.7h11.2v10.9h-11.2zm22.4 10.8v-10.8h22.4v10.8m11.2 0H627m22.4 0v21.8m0 0h11.2m-11.2 21.7h11.2m-22.4-87v10.9h11.2m11.2 10.9h-11.2v-10.9m89.5 43.5h11.2m-11.2-10.9v10.9m11.2 0v10.9h33.5m0-32.6v32.6m-11.2-43.5v10.9h11.2m0-21.8v10.9h-11.2m-22.3-76.1h-44.8m44.8 0v21.7m-44.8-21.7v21.7m33.6 0h-22.4m44.7 21.8v-21.8h-22.3m-33.6 0h-11.2v10.9m100.7-10.9h-22.4m11.2 43.5h11.2"/><path class="st0" d="M750.1 707v-10.9h-11.2m0 32.6h-22.4m0 10.9h22.4m-44.8-43.5h-22.3m0 32.6h11.1m11.2 0h-11.2m0 10.9V707h11.2v21.7h11.2v10.9m55.9-32.6h-11.1m-11.2 21.7v10.9m0 10.9v-10.9h11.2v-10.9h11.1V707h11.2v-10.9h11.2v32.6h-11.2v10.9h-11.2v10.9h11.2v21.7h-22.3v-10.9h-11.2m-11.2-10.8h11.2v10.8h-11.2m-33.6-10.8h11.2v-10.9h11.2v10.9h11.2v10.8m89.5-532.5v10.8h11.2m-33.6 97.9H806v-21.8m-11.2 21.8v10.8h-11.2m0 0v10.9M806 294h11.2v21.7H806M794.8 294v-32.6M783.6 294h11.2m22.4-65.2h33.5m-22.3-10.9v21.7m11.1 0v-10.8m0 10.8h11.2m0 0v10.9m0 0h11.2m0 0v10.9m11.2 0h-11.2m11.2 0v10.8m0 0h11.2m78.3-32.6H929m-190.1 32.6v-10.8m0 0h11.2v-43.5h-11.2m0 0V207h-11.2m-11.2 0v-10.8h-11.2m0 0v-10.9h-11.2v-10.9h-11.2v-10.8h-11.2v-10.9h-22.3m44.7-21.8h-33.6v10.9h33.6m0 0v10.9h22.4m0 0v10.9h22.4m44.7 32.6h-10.5V207h-11.9v-21.7h-11.1v-10.9h-11.2v-10.8m179 43.4v10.9M806 120.1v-10.9h-22.4v10.9m-67.1-21.8v10.9m0 0h-22.4m0 0v10.9h-11.2m123.1 0h-22.4m145.4 0v-10.9h44.8m0 0v10.9h22.4m0 0v10.8h11.2m0 0v65.3m0 0h-11.2v21.7m0 0h-22.4v10.9h-11.2v10.8m58.7 608.7h-11.2v10.9h-11.2V870h-67.1v-10.9h-22.4v-10.9h-11.2v-10.9H887v-21.7h-11.2v-76.1H887V783h11.2v21.7h11.2v10.9h44.8v-10.9h11.2v21.7h-11.2v10.9h-22.4v10.9h44.8v-10.9H999v-10.9h11.2v-43.5H999V772h22.4v10.9h11.2v43.5h-11.2v21.9zm-134.2-32.6v-32.6"/><path class="st0" d="M1010.1 783.1h11.2v43.4m0 0h-11.2v21.8m0 0h-11.2v10.9m0 0h-67.1m0 0v-10.9h-22.4m0 0v-21.8h-11.2v-10.8h-11.1m-752.3 0H146v-10.9h11.2v-10.9h67.1v10.9h22.4v10.9h11.2v10.9H269v21.7h11.2v76.1H269v-43.5h-11.2v-21.7h-11.2v-10.9h-44.8v10.9h-11.2v-21.7h11.2v-10.9h22.3v-10.9h-44.7v10.9H157v10.9h-11.2V881H157v10.9h-22.4V881h-11.2v-43.5h11.2v-21.8zM269 848.3v32.6"/><path class="st0" d="M145.9 880.9h-11.1v-43.5m0 0h11.1v-21.7m0 0h11.2v-10.9m0 0h67.1m0 0v10.9h22.4m0 0v21.7h11.2v10.9H269m514.6-652.1V207h11.2v10.9h-11.2m11.2 0H806v10.9h11.2v-10.9h11.2M716.5 98.3h-22.4v10.9h-11.2v10.9h-11.2m-44.7 0v21.7h-33.6m-11.2-32.6v10.9h11.2m44.8-54.4v10.9h11.2m-33.6 10.9v10.8H627V87.5zm33.6 21.7h-56v10.9h56m-56-43.5v32.6h-11.2m22.4-43.5v10.9h-11.2m44.8-10.9h-33.6m0-21.7h-22.4V33.1h-11.1v21.8m-33.6 54.3h-11.2M627 33.1V44m-22.4 0v10.9h11.2m33.6 21.7v32.6m-235 21.7v10.9h-11.2m111.9 87h-11.2v-10.9h-11.2M470.4 207h22.3v10.9M448 196.1h22.4V207M392 228.8h-22.3m-33.6 32.6v-10.9h44.8v10.9H392v10.8h11.2v10.9h11.2m-89.5-54.3h-22.3v10.8h-11.2v10.9h-11.2v10.9m67.1 32.6h-11.2m0-10.9V294m-89.5 21.7h11.2v-10.9h-11.2m-33.5 21.8v10.8m0-10.8h-11.2m33.5-97.8v10.8m11.2-10.8v10.8m11.2 10.9H269m-33.6-10.9h11.2m0-10.8h-11.2m22.4-10.9H269m0-10.9v-54.3m134.2 43.4H448V207M134.8 326.6h11.1m-11.1 0v10.8M112.4 370h-11.2m33.6 21.8v-10.9m-22.4 10.9V370m123 21.8v21.7h-11.2m0 0V402h-11.1v-10.2m0-10.9v10.9h22.3m-55.9 21.7h11.2v10.9m-22.4-10.9h-11.2m-11.2-21.7h11.2v21.7m-11.2 0v-21.7m-44.7 0h11.2M101.2 370v21.8m89.5 76.1v43.5m0-43.5h11.2v43.5h-11.2m-33.6 0h11.2v10.8m22.4 0v-10.8h-11.2v10.8m-22.4-97.8h11.2v43.5h-11.2m-11.2-54.4h11.2v10.9m78.3 87h-22.3v21.7h-22.4V544h-33.6v21.7h11.2m11.2-43.5h33.6m-56 0h11.2m-44.7-10.8v10.8h-11.2v-10.8m458.7 130.4v-10.9m111.8 119.6h11.2v21.7h22.4v10.9m-33.6-32.6v32.6m-11.1-87v32.6m11.1 54.4h33.6v10.8m-11.2 0h-11.2m100.7-108.7v43.5m100.7-293.4h11.2m0 130.4h11.2m78.3-119.6V457m0 0H985m-44.8 0h11.2m0 0v21.8h11.2m0 0v10.8h11.2v-10.8m11.2 10.8h-11.2v10.9H985m-33.6-10.9h11.2v10.9h-11.2m167.8 54.3h-11.1m0 0v10.9m-78.4-141.3v10.9m0-65.2h-33.5m-89.5 0h33.5m89.5 0v10.8m-22.3 21.8h11.1v10.8m0 0h-11.1v10.9M985 457v21.8h-11.2m33.6-32.7h-11.2m11.2-21.7h-11.2m11.2 10.9h-11.2m-89.5-10.9h-11.2v10.9m-306.3 666h-37.5v-7.3h-15v-14.5h-7.5v-29.1h7.5v-14.5h15v14.5h7.5v7.3h7.5v7.2h7.5v7.3h7.5v14.5h7.5z"/><path class="st0" d="m454.8 1056.7-25.8-.1-.2 50h-7.6v40.8h7.6v7.4h17.3v7.4h-9.5v7.4h-.1v.2h-8.3l.1 10.3-7.1.1v11.6l-7.8.3.2 7.1h-7.7v7.4h-7.6v8.9l-30.9.2.3 35.4v7.4h7.7v7.4h30.5v7.4h7.7v7.4h7.6l7.6-.2 23 .2h7.6v-7.4h7.6v7.4h7.7v14.8h7.6v14.9h7.6v14.8h7.7v29.6h-7.7v7.4h-7.6l.1 22.2h53.4l8.4.1v-15.8l12.3-.1v15.8H574v22.9h38.1v-22.9h18.2v-15.3h11.5v15.3h54.4l7.5-.1.1-22.1h-7.6v-7.4h-7.7v-29.6h7.7v-14.8h7.6v-14.9h7.6v-14.8h7.7v-7.4h7.6v7.4h7.6l22.9.1 7.7-.1h7.6v-7.4h7.7v-7.4h30.5v-7.4h7.7v-7.4l-.1-36.2h-30.8l.3-8.3h-7.6v-7.4h-7.7l-.2-7.4h-7.4V1177l-11-.2v-7.4h-9v-7.4l-6.9-.2v-7.4l19.2.4v-7.4h7.7v-37.1l-7.7-.1-.2-54.1h-26.8l.5 13.6h-8.5l.2 6.9-9 .2-.2 8.3h-47.6v-11.8h7.6v-22.2h-7.6v-14.9H658v-8.4h-7.7v-9.3H635l-.2 9.3h-13.5l.1 12.2-9.2.1-.1-8.6h-41.5l-.2 9.3h-9.2l-.1-13.8H551v-9.5h-15.2v9.1h-7.7v9.6h-7.6v14.9h-7.7v22.2h7.7l-.4 11.5h-49.4l.2-7.6-9.1-.2.1-8.6"/><path class="st0" d="M533.3 1370.1h-34v-7.3h7.5v-14.5h7.5v-21.8h-7.5v-14.6h-7.5v-14.5h-7.5v-14.5h-7.5v-14.6h-7.5v-50.8h7.5v29.1h7.5v14.5h15v7.2h22.4v29.1h7.5v7.3h30v14.5h7.5v21.8h-7.5v7.3h-7.5v7.2h-25.6z"/><path class="st0" d="M454.4 1268.3h-30v-7.2h-7.6l.1-7.3H387v-7.2h-7.5v-21.8h29.9v-7.3h7.5v-7.3h7.5v-7.2h7.5v-7.3h7.5v-14.5h7.5v-7.3h7.5v-7.2h7.5v-7.3h14.9v-7.3h7.5v-7.2h7.5v-7.3h15v-7.3h29.9v7.3h-22.4v7.3h-15v14.5h-7.5v7.3h-7.5v7.2h-7.5v14.5h-7.5v21.8h-7.4v50.9h-7.5z"/><path class="st0" d="M476.8 1137.6v7.3h-37.4v-7.3h-7.5v-24.4l7.6.3.2-48.6h7.2v14.6h7.5v7.2h7.5v7.3h14.9v7.3h59.9v7.2h22.5v7.3h-37.4l-.1 7.2-7.4.1h-15v7.2h-15v7.3zm112.4-14.5v21.8h-7.5v7.2h-7.5v7.3h-15v7.3h-7.5v7.2h-7.5v7.3h-7.5v-29.1h7.5v-7.2h7.5v-14.6h7.5v-7.2h15v-13.5h15z"/><path class="st0" d="M626.6 1181.2v14.5h-7.5v14.5h-7.5v14.6h-7.5v14.5h7.5v7.3h-22.4v-7.3h-7.5v-7.3h-7.5v-7.2h-7.5v-43.6h7.5v-7.3h-15v7.3h-7.5v7.2h-7.5v7.3h-15v-21.8h-7.4v-14.5h7.4v-14.5h-7.4v7.2h-7.5v7.3h-7.5v14.5h-7.5v14.5h-7.5v50.9h7.5v7.3h7.5v7.2h7.5v7.3h14.9v-7.3h15v-7.2h7.5v14.5h-7.5v7.2h-7.5v21.8h7.5v7.3h15v-7.3h15v21.8h7.5v7.3h22.4v-7.3h7.5v-21.8"/><path class="st0" d="M589.2 1152.1h7.5v7.2l7.4.1v7.2l7.5.1v7.2h7.5v14.5h-7.5v7.3h-7.5v21.8h-7.4v14.5h-7.5v-7.2h-7.5v-7.3h-7.5v-29.1h7.5v-29h7.5zm63.5 203.1v14.9h33.8v-7.3H679v-14.5h-7.5v-21.8h7.5v-14.6h7.5v-14.5h7.5v-14.5h7.5v-14.6h7.5v-50.8h-7.5v29.1H694v14.5h-15v7.2h-22.4v29.1h-7.5v7.3h-30v14.5h-7.5v21.8h7.5v7.3h7.5v7.2z"/><path class="st0" d="M731.5 1268.3h29.9v-7.2l7.3-.3.2-7h30v-7.2h7.4v-21.8h-29.9v-7.3h-7.5v-7.3h-7.5v-7.2h-7.5v-7.3h-7.5v-14.5h-7.5v-7.3h-7.4v-7.2H724v-7.3h-15v-7.3h-7.5v-7.2H694v-7.3h-15v-7.3h-29.9v7.3h22.4v7.3h15v14.5h7.5v7.3h7.5v7.2h7.5v14.5h7.5v21.8h7.5v50.9h7.5z"/><path class="st0" d="M709 1137.6v7.3h37.4v-7.3h7.5v-21.8h-7.5l.7-50.9h-8.2v14.6h-7.4v7.2H724v7.3h-15v7.3h-59.9v7.2h-22.5v7.3H664l-.1 7.2 7.6.1h15v7.2h15v7.3zm-112.3-36.3h37.4v-7.3h15v-14.5h7.5v-29.1h-7.5v-14.5h-15v14.5h-7.5v7.3h-7.5v7.2h-7.5v7.3h-7.5v14.5h-7.4zm0 21.8v21.8h7.4v7.2h7.5v7.3h15v7.3h7.5v7.2h7.5v7.3h7.5v-29.1h-7.5v-7.2h-7.5v-14.6h-7.5v-7.2h-15v-13.5h-14.9z"/><path class="st0" d="M626.6 1181.2h7.5v7.2h7.5v7.3h15v-21.8h7.4v-14.5h-7.4v-14.5h7.4v7.2h7.5v7.3h7.5v14.5h7.5v14.5h7.5v50.9h-7.5v7.3H679v7.2h-7.5v7.3h-14.9v-7.3h-15v-7.2h-7.5v14.5h7.5v7.2h7.5v21.8h-7.5v7.3h-15v-7.3h-15v21.8h-7.5v7.3h-22.4v-7.3h-7.5v-21.8m22.5-211.2h-7.5v-14h-7.5v-22.1h22.4v22.1h-7.4zm-12.6 291.2h-17.5l.1-14h7.5v-7.2h7.5v-21.8h22.4v21.8h7.5v7.2h7.5v14H601l.4 22.8h-16.9zm-122.2-301.7-7.1-.2-.1-9.6m496.7 213.6v10.9M929 1141.8v10.8m-22.3-217.4v32.6m-22.4 434.8v10.9M794.8 870v21.8m-335.6 21.7v21.8M425.6 957v-21.7m358 554.3v-10.9m-413.9-500v10.9m-11.2 456.5v-10.9h-11.2v-32.6h11.2m-111.9-173.9v10.9m-11.2 0v10.8m-11.2-10.8.1 10.8m-11.2-43.4v10.8m11.2 54.4v-10.9h11.1v-10.9m11.2 21.8H269v-10.9h11.2v-10.9H269v10.9h-22.4v10.9m-145.4-10.9h22.4v10.9h-22.4z"/><path class="st0" d="M90 1250.4h11.2v10.9H90zm-44.8-152.1h33.6v10.8H90v10.9h11.2v32.6h11.2v43.5h11.2v32.6h11.2v10.9h11.1v-108.7h-11.1v-21.8h-11.2v-10.8h11.2m11.1 163v-10.9h11.2v-32.6h11.2V1207h11.2v-21.8h11.2v21.8h11.2v10.8h11.2v32.6h11.2v10.9h-22.4v10.9h-33.6v-10.9zm33.6-108.7h11.2v10.9h-11.2z"/><path class="st0" d="M134.8 1109.1v-54.3h11.1v10.9h11.2v-10.9h11.2v-21.7h11.2v-21.8h11.2v21.8h11.2v21.7h11.2v10.9h11.1v-10.9h11.2v54.3h-11.2v97.9h-11.1v-21.8h-11.2v-76.1h-11.2v-10.8h-11.2v10.8h-11.2v76.1h-11.2v21.8h-11.2v-97.9zm111.8-141.2h11.2v21.7h-11.2zM235.4 957h11.2v10.9h-11.2zm44.8 54.3v10.9H269"/><path class="st0" d="M324.9 1098.3h-33.5v10.8h-11.2v10.9H269v32.6h-11.2v43.5h-11.2v32.6h-11.2v10.9h-11.2v-108.7h11.2v-21.8h11.2v-10.8m78.3-206.5h11.2v10.9h-11.2zm-201.3 347.8h11.2v10.9h-11.2zm0 43.4v-10.8h44.7v10.8h11.2v10.9h11.2V1283h11.2v-10.8h44.7v10.8h-33.5v21.8h11.2v10.8h11.1v21.8h-11.1v-10.9h-11.2v-10.9h-11.2v-10.8h-33.6v10.8h-11.2v10.9h-11.2v10.9h-11.1v-21.8h11.1v-10.8h11.2V1283zM929 957v-10.9h22.4V957h11.2v10.8H985v10.9h22.3v10.9h11.2v10.9m-123 532.5v-97.8h11.2v21.7h11.2v10.9h11.2v21.8h11.1v21.7h-11.1v10.9h-11.2v21.7h11.2v10.9h11.1v10.8h11.2v10.9"/><path class="st0" d="M828.4 1446.1h22.3v-10.9h11.2v-10.9h11.2v-10.8h11.2v43.4h-11.2v54.4h11.2v21.7h11.2v32.6h-22.4v-21.7h-11.2v-21.7h-22.4v21.7h-11.1v-21.7h-11.2v-43.5h11.2v-21.8m67.1-32.6v-32.6h11.2v-32.6h11.2v21.8h11.2v43.4h-11.2v-10.8h-11.2v10.8zm-78.3-32.6v-10.8h44.7V1370h22.4v-10.9h11.2v32.6h-11.2v10.9h-44.8v-10.9zm100.7-65.2v-32.6h11.2v-10.8h22.3v10.8h22.4v10.9H985v-10.9h22.4v-10.8h22.3v10.8h11.2v32.6h-33.5v32.6h-56v-32.6z"/><path class="st0" d="M973.8 1272.2v-32.6H985v32.6h11.2v10.9H985v10.8h-11.2v-10.8h-11.2v-10.9zm145.4 10.9v10.8h-11.1v10.9h-33.6v-10.9h-11.2v-21.7h-11.2v-21.8h-11.2v-10.8h-11.2v10.8h-22.3l-.1-10.8h-11.1v-43.5h11.1v-43.5h-11.1v-10.8h22.3v10.8h22.4m-89.5 97.8h11.2v21.7h-11.2zm11.2-54.3h11.2v43.5h-11.2zm33.6 0v-43.5m-22.4-21.7H985v10.9h-11.2zm-111.9 21.7v-10.8h33.6v-10.9h11.2V1120h33.5v10.9H929v10.9h-11.1v10.8h-11.2v10.9h-33.6v-10.9zm33.6-76.1v-10.8h22.4v10.8h33.5v21.8h11.2v21.7h-22.4v-10.9H929v-10.8h-22.3v-21.8z"/><path class="st0" d="M1018.5 1130.9h11.2v10.9h-11.2zm-33.5-32.6v10.8h-11.2v-21.7H985v-10.9h11.2v-21.7h22.3v10.9h-11.2v21.7h-11.1v10.9m-33.6 0h11.2m-33.6-32.6h11.2v-21.8h11.2v10.9h11.2v10.9h-11.2v32.6m-492.2 489.1v-21.8h11.2v-21.7h22.3v10.9h-11.1v32.6h11.1v10.8h11.2v10.9h22.4v10.9h-44.7v-21.8h-11.2v-10.8z"/><path class="st0" d="M526.3 1630.8h-44.7V1620h-11.2v-10.9h22.4m89.4-21.7h11.2v-10.9m-290.8-141.3v10.9h22.3v10.8h22.4v10.9h22.4v10.9h11.2v10.8h11.2v10.9h22.3v10.9h22.4v10.9h22.4v21.7h-22.4v10.9h-11.2v10.8h-11.2v10.9h-11.2v10.9h-55.9v-21.8h22.4v-10.8h11.2v-10.9h-11.2V1533h-22.4v10.9h-44.7v-32.6h33.5v-10.9h11.2v-10.9h-11.2v-10.8h-44.7v-10.9h-11.2v-10.9h-22.4v-10.8h-22.4m358 130.4v-10.9h11.2v-10.8h11.2v21.7z"/><path class="st0" d="M593.4 1576.5h-11.2v32.6h-33.5v-10.9h11.2v-10.8h11.2v-32.6h33.5m145.5-32.6v-10.9h11.1m11.2-10.9v-10.8h11.2"/><path class="st0" d="M772.4 1500.4h-11.2v10.9m22.4-32.6v10.9m-100.7 108.6v10.9h11.2v10.9h-22.3v-10.9h-11.2v-21.7h-11.2v10.8H627v-10.8h11.2v-21.8h11.2v-10.8h33.5v-10.9h11.2v-21.7h-11.2m11.2-97.9h11.2v10.9h11.2v10.9h67.1v-10.9h44.8v10.9m55.9-43.5h11.2m0-65.2h11.2m0-65.2h11.2v21.8h-11.2zm-682.4-21.8h11.1m783.1 21.8v-10.9h11.2v-10.9h11.2v21.8zm-783.1-32.6h11.2m-33.5 0h11.1m-11.1-10.9h11.1m-11.1-10.9h11.1"/><path class="st0" d="M962.6 1239.6h-11.2v10.8h-22.3l-.1-10.8h-11.1v10.8h-11.2v21.8h-11.2v21.7h-11.2v10.9h-33.6v-10.9h-11.2v-10.8m89.5-141.3h11.2m-604.1-32.7h-11.2v-10.8m56-130.4H392m44.8-21.8h-22.4m-190.2 0h11.2V957h-11.2zm682.5-10.9h-11.2l-11.2.1M448 924.4h22.4m391.5-21.8H806m44.7-10.8h-55.9m0-10.9h44.7"/><path class="st0" d="M839.5 1065.7v-87h11.2v-65.2h22.4v10.9h11.2v43.4h-11.2v10.9h-11.2v54.4h-11.2v32.6zm-44.7-76.1H806v10.9h-11.2z"/><path class="st0" d="M772.4 1022.2v-43.5h11.2v21.8h11.2v10.8h-11.2v10.9zm145.5-108.7v21.7h-11.2v-10.8h-11.2v-10.9m22.4 0h-33.6M929 957h11.2v21.7H929zm-212.5 684.7v-32.6h11.2v21.7h22.4v-21.7h44.7v21.7h22.4v-21.7h55.9v21.7h22.4v-21.7h44.7v21.7h22.4v-21.7h44.8v21.7h22.3v-21.7h44.8v21.7h22.4V1620h-11.2v-21.8h22.4v10.9h11.1v-21.7h-22.3v-43.5h22.3v-21.7h-22.3v-43.5h22.3v-21.8h-22.3v-43.4h22.3v-21.8h-22.3v-43.4h22.3v-21.8h11.2v32.6h-22.3v21.8h22.3v43.4h-22.3v21.8h22.3v43.5h-22.3v21.7h22.3v43.5h-22.3v21.7h22.3v65.2h-67.1V1620h-22.4v21.7h-44.7V1620h-22.4v21.7h-44.7V1620h-22.4v21.7h-44.8V1620h-33.5v21.7h-44.8V1620h-22.4v21.7zM627 870h11.2v10.9H627z"/><path class="st0" d="M.5 815.7v847.7h1152.3V815.7m-10 10.4v826.4l-1131 .7-.2.1V827.1"/><path class="st0" d="M526.3 880.9h11.2v21.7h-11.2zM503.9 870h22.4v10.9h-22.4z"/><path class="st0" d="M503.9 859.2v-10.9h33.6v10.9h11.2V870h33.5v32.6h-33.5v-21.7h-11.2V870h-11.2v-10.8zM459.2 870v-21.7h22.3v10.9h11.2v76.1h-11.2v-10.9h-11.1v-10.9h11.1v-32.6h-11.1V870zm-22.4 97.9H448v10.9h-11.2zM448 957h11.2v10.9H448zm-33.6 0h22.4v10.9h-22.4zm22.4-21.7H448V957h-11.2zm-33.6 0h11.2V957h-11.2z"/><path class="st0" d="M10.5 1653h1.4l1137.5 1.2m-18.9-295.1h-22.4v21.7h22.4v43.5h-22.4v21.7h22.4v43.5h-22.4v21.7h22.4v43.5h-22.4v21.7h22.4v65.2h-67.2V1620h-22.4v21.8h-44.7V1620h-22.4v21.8H929V1620h-22.4v21.7h-44.8V1620h-33.5v21.8h-44.8V1620h-22.4v21.8h-44.7v-32.6h11.2v21.7H750v-21.7h44.7v21.7h22.4v-21.7h56.1v21.7h22.4v-21.7h44.7v21.7h22.4v-21.7h44.7v21.7h22.4v-21.7h44.8v21.7h22.4V1620h-11.2v-21.7H705.3v-10.9h369.2v-260.9h11.2v271.8h22.4v10.9h11.2v-21.8h-22.4v-43.5h22.4v-21.7h-22.4v-43.5h22.4V1457h-22.4v-43.5h22.4v-21.7h-22.4v-43.5h22.4v-21.7h11.2zm-167.8 65.2v-43.5h11.2v32.6H985v10.9h11.2v10.9h11.2v10.9h11.2v32.6h-11.2v10.9h-11.2v-10.9h11.2v-10.9h-11.2v-10.9H985V1446h-11.2v-21.7zm122.9-647.7.1 213h-11.2v-97.8m33.4-184.8v21.7h22.4l.1 43.5H1108v21.7h22.4v43.5H1108v21.7h22.4v43.5H1108v21.8h22.4v43.5H1108v21.7h22.4v43.5H1108v21.7h22.4v43.5H1108v21.7h22.4v43.5H1108v21.8h22.4v43.5H1108v21.7h-11.2v-32.6h22.3v-21.7h-22.4v-43.5h22.4v-21.8h-22.4v-43.5h22.4v-21.7h-22.4v-43.5h22.4v-21.8h-22.4V957h22.4v-21.7h-22.4v-43.5h22.4V870m-44.6 152.2v10.9h11.2v43.5h-11.2v10.9h-33.6v-10.9h33.6V1044h-22.4v-32.6h11.2v-10.9h22.4v10.9h-22.4v10.9h11.2zM682.9 880.9h44.8v10.9h-44.8zm0 32.6h11.2v10.9h22.4v-10.9h11.2v-10.9h11.2v-43.5h-11.2v-10.9h-22.4v-10.8H750v10.8h33.6v10.9H806V870h33.6v10.9h11.2v10.9H862v10.9h11.2v10.9h11.2v-10.9H918v10.9h44.8v10.9H985v10.9h11.2v10.9h11.2v-10.9h22.4v-10.9h11.2v-10.9h-11.2v-10.9h22.4v32.7H1041v10.9h-33.6V957h11.2v10.9h11.2v43.5h-11.2v-10.9h-44.7v-10.9h-22.4v-10.9h-11.2v21.7h11.2v32.6h11.2v10.9h11.2v10.9H985v-10.9h33.6V1033h11.2v54.3h-11.2v10.8h22.4v10.9h22.4v10.9h11.2v10.9h11.2v10.9h-11.2v10.9H1041v21.7h11.2v43.5h11.2v21.7h11.2v21.7h11.2v10.9h11.2v10.9h22.4v-10.9h11.2v21.8h-11.2v10.9H1108v10.9h-33.6v-10.9h-11.2v-10.9H1052v32.6h-11.2v10.9h-22.4v21.7h-11.2v10.9h-55.9v-10.9h-11.2v-21.7h-22.3v-10.9h-11.2v32.6h11.2v-10.8H929v32.6h11.2v54.3h11.2v10.9h-22.3v-10.9h-11.2v21.7h11.2v10.9h11.2v21.7h11.2v21.7h11.2v10.9h11.2v10.9h-33.6v-10.9h-11.2v21.7h11.2v10.9h11.2v10.9h11.2v10.9H918v-10.9h-11.2v-21.7h-11.2v21.7h-22.4v-21.7H862v-21.7h-22.4v21.7h-11.2v10.9h-11.2v10.9H806v-10.9h11.2v-32.6H806v-54.3h11.2V1457h11.2v-10.9H806v10.9h-22.4v10.9H750v10.9h-78.3v-10.9h-22.4V1457h-11.2v-32.6h11.2v10.9h11.2v10.9H683v10.9h22.3v-10.9h-11.2v-32.6h11.2v10.9h11.2v10.9h44.7v-10.9H750v-10.9h-11.2V1370H750v10.9h11.2v10.9h11.2v10.9h67.1v-10.9h-22.3v-10.9H806v-21.7h11.2v10.9H862v-10.9h22.4v-10.9h11.2v-21.7h11.2V1294h-11.2v10.9h-11.2v10.9h-33.6v-10.9h-11.2V1294h-11.2v-21.8h11.2v10.9H862v-10.9h11.2v-10.9h11.2v-21.8h11.2v-21.7h11.2v-43.5H918v-21.7h-11.2v10.9h-11.2v10.9h-55.9v-10.9h-11.2v-10.9h11.2v-10.9h11.2v-10.8h11.2V1120h11.2v-10.9h33.6v-10.9h-22.4v-21.7h-11.2v-32.6h11.2v10.9h44.8v10.9h11.2V1044h-11.2v-43.5h-11.2v-32.6h-11.2v43.5h-11.2v-10.9h-11.2v-21.7h-11.2v54.3h-11.2v32.6h-11.2v10.9h-11.2v10.9H806v-10.9h11.2v-43.5H806v-32.6h-11.2v10.9h-11.2v10.9h-11.2v-43.5h11.2V957h11.2v-21.7H806v-32.6h-11.2v-10.9h-11.2V870h-11.2v-10.9h-11.2v108.7H750v-21.7h-22.4V957H694v-10.9h-11.2v-32.6zm402.8 250v65.2h-11.2v-65.2zM78.9 891.7v174H67.6V674.4h11.2zm33.6 195.5v.3H90v-10.9h11.2v10.9H146v10.8h-33.6v-10.8h-11.2V935.3h11.2v-10.9h56v10.9h-44.8v10.9h-11.2v32.6zm-89.6 98.1h22.4v-21.7H22.9v-32.7h11.2v21.7h22.4v43.5H34.1v21.7H22.9zm559.3-163v-21.7h-44.8v-10.8h-33.6v-10.9h-11.2v-11h-11.2v10.9h-22.3v21.7H448v10.9h-44.8v-10.9h-11.1v-21.7h-11.2v10.9h-22.4v-10.9h-11.2v21.7h-22.4v10.9h-11.2v10.9h-11.2v10.9h-11.2v10.9h-11.2v21.7H269v10.9h44.8v10.9H325v10.9h11.2v21.7H325v-10.9h-33.6v10.9h-11.2v32.6H269v43.5h-11.2v32.6H269V1218h67.1v10.9h11.2v10.9h-11.2v10.9h-11.2v10.8h-11.2v10.9h-11.2v10.9h-22.4v10.9h-33.6v10.9h11.2v10.9H269v54.3h11.2v21.7h11.2v10.9h11.2v10.9h11.2v10.9H325V1403h-11.2v-54.3H325V1327h11.2v-10.9h11.2v-10.9h44.8v10.9h-22.4v10.9h-11.2v21.8h-11.2v21.7h11.2v-10.9H381v10.9h-11.2v32.6h-11.2v32.6h11.2v21.7H381v-54.3h11.2v-10.9h33.5v10.9h-11.2v43.5h11.2v10.9h11.2v-10.9H448v-10.9h11.2v10.9H448v21.7h11.2v10.9h11.2v10.9h11.2v10.9H504v10.8h55.9v10.9H683v-10.9h-11.2v-21.7H683v10.9h11.2v10.9h22.4V1501H739v-10.9h22.3v-10.9h33.6v10.9h-11.2v10.9h-11.2v10.9h-11.2v10.9h-11.2v32.6h11.2v10.9h-11.2v-10.9h-11.2V1533h-22.4v10.9h-11.2v10.9h-11.2v10.9h-11.2v10.9h-11.2v21.8h22.4v10.9h11.2v10.9h-33.5v-10.9h-11.2v-21.7h-11.2v10.9H627v-10.9h11.2v-21.7h11.2V1555H627v21.7h-11.2v10.9h-22.4v10.9h11.2v10.9h11.2v10.9h-11.2v10.9h-11.2v10.9h-33.6v-10.9h-11.2V1620h-11.2v10.9h-11.2v10.9h-44.8v-10.9H459v-21.7h11.2v-10.9H448v-10.9h-11.2v-21.7h-11.2v21.7h-22.4v10.9h-67.1v-32.6h11.2v-10.9h-44.8v-10.9h-11.2V1533h-11.2v-10.9h11.2v-10.9h11.2v-10.9h33.6v-10.9h-44.8v-10.9h-11.2v-10.9h-22.4v-10.9h-22.4v10.9h-11.2v10.9h-11.2v-21.7h11.2v-10.9h11.2V1435h67.1v-10.9h-11.2v-10.9H280v-10.9h-11V1370h-11.2v10.9h-11.2v10.9h-11.2v-10.9h-11.2V1370H213v-10.9h-11.2v-21.7h-11.2v-32.6h-11.2v32.6h-11.2v21.7H157v10.9h-11.2v10.9h-11.2v10.9h-11.2v-10.9h-11.2V1370H101v-54.3h11.2v-10.9h11.2v-10.9H90V1283H67.6v-10.9H56.4v-10.9H45.3v-10.9H34.1v-10.9H22.9v-10.9h22.4v-10.9h55.9v10.9h11.2v-32.6h-11.2v-43.5H90V1120H78.8v87H67.6v-87h11.2v-10.9H45.3v10.9H34.1v-21.7h11.2v-10.9h11.2l.1-10.3 44.6-.3.1 10.6h11.2v10.9h11.2V1044h11.2v-10.9H146v21.7h11.2v-21.7h11.2v-21.7h11.2v-10.9h11.2v10.9H202v21.7h11.2v21.7h11.1v-21.7h11.2v10.9h11.2v54.3h11.2v-10.9H269v-10.9h-11.2v-32.6H269v-54.3h-11.2v43.5h-11.2v-21.7h-11.2v-10.9h-11.2v-10.8h-11.1v-10.9h-11.2v-10.9h-11.2v-21.7h-11.2v-43.5h11.2v10.9h33.5v10.9h22.4v10.9h11.2v10.9H269V968h11.2v43.5h11.2v-10.9h11.2v-21.7h-11.2V957h-11.2v-10.9h11.2V957h11.2v10.9h11.2v21.7H325v-10.9h22.4v-43.5h-11.2v10.9H325v-10.9h-11.2v-10.9h-11.2V870h11.2v-10.9H325V870h22.4v32.6h-11.2v10.9h11.2v21.8h11.2v-10.9h11.2v-10.9h-11.2v-32.6h11.2V870h33.5v-10.9h-11.1v-10.9H381v-10.8h33.6v10.8h11.2v10.9H437V870h11v-21.7h11.2v-10.8h22.4v10.8H504v-10.8h33.6v10.8h11.2v10.9h33.5v-10.9h22.4v-10.8h33.6v10.8h11.2v10.9h11.2V870h11.2v32.6h-11.2v21.8h-11.2v-10.9h-11.2v-10.9H627v-10.9h-22.4V870h-11.2v32.6h-11.2v10.9h22.4v10.9h11.2v10.9H627v43.5h-11.2v-10.9h-33.6V957H571v-32.6h11.2v-10.9h-33.6v10.9h11.2v21.7h-11.2V957H515v-10.8h-11.2v-10.8h-11.2V968h44.8v10.9h22.4v10.9h41.8v43.5h-8.2m-436.3 521.4v-10.8h-11.2V1533h-11.2v-65.2h11.2v-21.7h11.2v-10.9h11.2v-10.9h22.4v-10.9H269v10.9h-44.7v10.9h-22.4v10.9h-11.2v43.5h11.2v10.9h-22.4v-10.9h-11.2v-21.7h-11.2v43.5h11.2v21.7h11.2v10.9h44.8v-11h11.2v21.7h-11.2v10.9h-44.8v-10.9zm-134.2 21.8h22.4v-21.7H22.9v-43.5h22.4v-21.7H22.9v-43.5h22.4v-21.7H22.9v-43.5h22.4v-21.7H22.9v-43.5h22.4V1294H22.9v-32.6h11.2v21.7h22.4v43.5H34.1v21.8h22.4v43.5H34.1v21.7h22.4v43.5H34.1v21.7h22.4v43.5H34.1v21.7h22.4v43.5H34.1v21.7h11.2v-10.9h22.4V1294h11.2v293.4H325v10.9H67.6v21.7H56.4v10.9h22.4v-21.7h44.7v21.7h22.4v-21.7h44.8v21.7h22.4v-21.7h44.7v21.7h22.4v-21.7H325v21.7h22.4v-21.7h44.8v21.7h22.4v-21.7H448v10.9h-22.4v21.7h-44.7V1620h-22.4v21.7h-44.8V1620h-22.4v21.7h-44.7V1620h-22.4v21.8h-44.8V1620H157v21.7h-44.8V1620H90v21.7H22.9z"/><path class="st0" d="M682.9 1522.2h11.2v10.9h-11.2zM996.2 1120h22.4v10.9h-22.4zm22.3 10.9V1120"/><path class="st0" d="M996.2 1109.1h44.7v10.9h11.2v21.8m-626.5-250h11.2v10.9h-11.2zm11.2-10.9h-11.2v10.9h-11.2v-10.9h-11.2V870h33.6m358-10.8V870m167.8 413.1h-11.2m44.8 0h11.2v-10.9h11.1m-436.3-413h11.2V870h-11.2m111.9 54.4h-11.2m11.2 0v10.9l22.4-.1v-10.8m0 0h11.2v-10.9h11.1v-10.9m0-43.4h11.4v43.4h-11.4m0-43.4v-10.9h-11.1m67.1 32.6h-11.2m33.6 32.6V870M806 902.6V870h-22.4m44.8 0v43.5m11.1 0v-32.6M806 935.2h11.2v-21.7h22.3m-22.3 0H806m0 87h11.2v32.6m22.3 43.4h-11.1v-43.4h-11.2m-33.6-54.4h11.2V957H806v-21.8m33.5 141.4v-10.9m0-87v-65.2h11.2m0-21.7v21.7m11.2 0v-10.9m33.6 97.9v-32.7m11.2 21.8h-22.4m23.6-10.9h-23.6m0 0v-10.9m0 0h22.4m-11.2 0v-43.4m0 0h-11.2v-10.9m33.6 32.6h-11.2M929 957h-11.1v-21.8m11.1 10.9h-11.1m78.3 32.6v-10.9H985V957h-22.4v-10.9h-11.2v-10.9h-33.5m78.3 10.9H985v-10.9m0 0-22.4.1v-10.9m-44.7 0h44.7m87.8 217.4h-9.5M906.7 1120v-10.9H929M582.2 870v-10.8m-33.5 65.2h-11.2v-10.9m11.2 32.6v-21.7m0 21.7h-33.6m22.4-43.5h11.2v10.9h-11.2zm-11.2 0v10.9h-22.4v-10.9m-11.2 0h33.6m-22.4 0v-21.7m0 0h-11.2m11.2-21.7h-11.2m22.4 86.9v-10.9l-11.2.1m-11.2-10.9h11.2v10.9m-89.5-43.5h-11.2m11.2 10.8v-10.8m-11.2 0v-10.9h-33.5m0 32.6v-32.6m11.2 43.5v-10.9h-11.2m0 21.8v-10.9h11.2m22.3 76.1H448m-44.8 0v-21.8m44.8 21.8v-21.8m-33.6 0h22.4M392 957v21.7h22.4m33.6 0h11.2v-10.8m-100.7 10.8h22.4m-11.2-43.4h-11.2"/><path class="st0" d="M403.2 957v10.9h11.2m0-32.6h22.4m0-10.9h-22.4m44.8 43.5h22.3m0-32.6h-11.1m-11.2 0h11.2m0-10.9V957h-11.2v-21.7H448v-10.9M392 957h11.2m11.2-21.7v-10.9m0-10.9v10.9h-11.2v10.9H392V957h-11.1v10.9h-11.2v-32.6h11.2v-10.9H392v-10.9h-11.1v-21.7h22.3v10.8h11.2m11.2 10.9h-11.2v-10.9h11.2m33.6 10.9H448v10.9h-11.2v-10.9h-11.2v-10.9m-89.5 532.6v-10.9h-11.2m33.6-97.8h-11.2v21.7m11.2-21.7v-10.9h11.2m0 0v-10.8m-22.4 65.2h-11.2v-21.8h11.2m11.2 21.8v32.6m11.2-32.6h-11.2m-22.4 65.2h-33.5m22.3 10.9v-21.8m-11.1 0v10.9m0-10.9h-11.2m0 0v-10.8m0 0h-11.2m0 0v-10.9m-11.2 0h11.2m-11.2 0v-10.9m0 0H269m-78.3 32.6h33.6m190.1-32.6v10.9m0 0h-11.2v43.5h11.2m0 0v10.8h11.2m11.2 0v10.9H448m0 0v10.9h11.2v10.8h11.2v10.9h11.2v10.9h22.3m-44.7 21.7h33.6v-10.8h-33.6m0 0v-10.9h-22.4m0 0v-10.9h-22.4m-44.7-32.6h10.5v-10.9h11.9v21.8h11.1v10.8h11.2v10.9m-179-43.5v-10.8m111.9 97.8v10.9h22.4v-10.9m67.1 21.7v-10.8m0 0h22.4m0 0v-10.9h11.2m-123.1 0h22.4m-145.4 0v10.8h-44.8m0 0v-10.8h-22.4m0 0V1533h-11.2m0 0v-65.2m0 0h11.2v-21.7m0 0h22.4v-10.9h11.2v-10.9m179 43.5v-10.9h-11.2v-10.8h11.2"/><path class="st0" d="M358.5 1446.1h-11.2v-10.9h-11.2v10.9h-11.2m111.9 119.5h22.4v-10.8h11.2v-10.9h11.2m44.7 0v-21.7h33.6m11.2 32.6v-10.9h-11.2m-44.8 54.3v-10.8h-11.2m33.6-10.9v-10.9h-11.2v10.9zm-33.6-21.7h56v-10.9h-56m56 43.5v-32.6h11.2m-22.4 43.4v-10.8h11.2m-44.8 10.8h33.6m0 21.8h22.4v10.8h11.1v-21.7m33.6-54.3H627m-100.7 76V1620m22.4 0v-10.9h-11.2m-33.6-21.7v-32.6m235-21.8v-10.8h11.2m-111.9-87h11.2v10.9h11.2m22.3 10.8h-22.3v-10.8m44.7 21.7h-22.4v-10.9m78.3-21.7h22.4m33.6-32.6v10.9h-44.8v-10.9h-11.2v-10.9h-11.1v-10.8h-11.2m89.5 54.3h22.3v-10.9h11.2v-10.8h11.2v-10.9M806 1370h11.2m0 10.9V1370m89.5-21.7h-11.2v10.8h11.2m33.5-21.7v-10.9m0 10.9h11.2m-33.5 97.8v-10.9m-11.2 10.9v-10.9m-11.2-10.8h-11.2m33.6 10.8h-11.2m0 10.9h11.2m-22.4 10.9h-11.2m0 10.8v54.4m-134.2-43.5h-44.8v-10.9m313.2-119.5h-11.1m11.1 0v-10.9m22.4-32.6h11.2m-33.6-21.7v10.9m22.4-10.9v21.7m-123-21.7v-21.8h11.2m0 0v11.6h11.1v10.2m0 10.9v-10.9h-22.3m55.9-21.8h-11.2v-10.8m22.4 10.8h11.2m11.2 21.8h-11.2v-21.8m11.2 0v21.8m44.7 0h-11.2m11.2 21.7v-21.7m-89.5-76.1v-43.5m0 43.5h-11.2v-43.5h11.2m33.6 0H985v-10.8m-22.4 0v10.8h11.2v-10.8m22.4 97.8H985v-43.5h11.2m11.2 54.3h-11.2v-10.8m-78.3-87h22.3v-21.7h22.4V1120h33.6v-21.7H985m-11.2 43.5h-33.6m56 0H985m44.7 10.8v-10.8h11.2v10.8m-458.7-130.4v10.9M470.4 913.5h-11.2v-21.7h-22.4v-10.9m33.6 32.6v-32.6m11.1 87v-32.6m-11.1-54.4h-33.6V870m11.2 0h11.2M358.5 978.7v-43.4m-100.7 293.4h-11.2m0-130.4h-11.2m-78.3 119.5V1207m0 0h11.2m44.8 0h-11.2m0 0v-21.8h-11.2m0 0v-10.9h-11.2v10.9m-11.2-10.9h11.2v-10.8h-11.2m33.6 10.8h-11.2v-10.8h11.2m-167.8-54.4h11.1m0 0v-10.8m78.4 141.3v-10.9m0 65.2h33.5m89.5 0h-33.5m-89.5 0V1283m22.3-21.7h-11.1v-10.9"/><path class="st0" d="M134.8 1250.4h11.1v-10.8m22.4-32.6v-21.8h11.2m-33.6 32.6h11.2m-11.2 21.8 11.2-.1m-11.2-10.8h11.2m89.5 10.9 11.2-.1v-10.8M56.4 891.8v10.9H34.1v21.7h22.3v43.5H34.1v21.7h22.3v46.3H34.1v22.7h22.3v10l-33.5-.2v-46.2h22.3v-21.7H22.9v-10.9M1119.2 870h-22.3v-43.5l22.3-.4v-21.3m0 0h-22.3v-43.5h22.3l-.1-21.7h-22.3v-43.5h22.3v-21.8h-22.3v-43.4h22.3l.1-21.7h-22.4v-10.9h33.5v43.5h-22.4v21.7h22.4V707h-22.4"/></svg>