<svg id="Layer_1" data-name="Layer 1" xmlns="http://www.w3.org/2000/svg" viewBox="0 0 200 200"><polygon points="32.97 129.03 33.09 128.93 33.47 100.82 32.63 101.29 32.97 129.03"/><polygon points="45.46 110.17 45.59 110.07 45.97 81.97 45.12 82.44 45.46 110.17"/><polygon points="46.97 109.33 47.09 109.23 47.48 81.12 46.63 81.59 46.97 109.33"/><polygon points="11.28 85.69 5 88.66 5 120.33 31.66 133.5 31.66 101.83 34.14 100.44 34.48 128.18 34.6 128.07 34.98 99.97 34.31 100.34 37.41 98.6 37.41 98.6 35.66 99.58 35.66 129.34 37.95 130.48 37.95 98.86 37.95 98.86 37.95 98.76 37.95 98.29 37.95 98.29 37.95 98.29 37.95 98.29 37.95 98.29 37.95 92.02 11.28 78.85 11.28 85.69"/><path d="M50.58,79.39,24.46,66.5,17.6,69.75l1.84.91-1.84-.91v6.11l-6.32,3L38,92l.9-.51.34,27.74.12-.1L39.69,91l.67-.37.34,27.73.12-.1.38-28.1.77-.43v30l2.29,1.13V89.77h0V88.48h0V82.92l4.08-2.28-.05,0v29.8l2.28,1.13V79.39ZM42,89.77l1.07-.6h0Z"/><path d="M186,78h-5.46l4.68-6-5.15,0-8,10.14h13.44a5.72,5.72,0,0,1,5.41,3.63,1.12,1.12,0,0,1,.11.47V93.7l-22.7,0V78h-3.9V93.68h-8.33l0-21.77h-4v25.9H195V86.12C195,82,189.1,78,186,78Z"/><rect x="164.39" y="72.2" width="3.83" height="3.83"/><rect x="159.74" y="72.19" width="3.83" height="3.83"/><path d="M150.67,78H146.8l0,15.78H119.43s0-3.21,0-7.5c1.78-4.11,4.74-4.06,4.74-4.06v-4C117.05,79,115.6,86,115.6,86V97.81h35.07Z"/><rect x="130.76" y="99.26" width="3.83" height="3.83"/><rect x="104.54" y="99.26" width="3.83" height="3.83"/><path d="M78.25,97.81H93.88v5.28h4V97.81h16.3V78h-4V93.85H97.84V77.94h-11l-.19,0a10.67,10.67,0,0,0-8.43,8.58l0,.17V97.81ZM84,83.66a6.92,6.92,0,0,1,3.24-1.77h6.6v12H82.19V87.08A6.75,6.75,0,0,1,84,83.66Z"/><path d="M60.82,97.83H76.65v0h0V78.11h0V78H65.87a9.31,9.31,0,0,0-6.2,2.46,9.15,9.15,0,0,0-2.79,5.37l0,.14v16h4Zm1.56-14.49A5.29,5.29,0,0,1,65.89,82h6.8V93.87H60.82V86.25A5.26,5.26,0,0,1,62.38,83.34Z"/><path d="M192.42,107.83a10.87,10.87,0,0,0-6.95-2h-5.75v17.5h5.62a11.64,11.64,0,0,0,4.75-.77,8.3,8.3,0,0,0,3.5-3.09,8.7,8.7,0,0,0,1.31-4.89C194.9,111.41,194.07,109.15,192.42,107.83ZM190.32,118a3.62,3.62,0,0,1-2.06,1.63,12.06,12.06,0,0,1-3.65.44h-1.22v-10.9h2.06a7.91,7.91,0,0,1,3.09.52,3.69,3.69,0,0,1,1.77,1.78,6.68,6.68,0,0,1,.7,3.15A6.82,6.82,0,0,1,190.32,118Z"/><polygon points="172.61 117.08 165.55 105.83 165.55 105.83 165.55 105.83 165.55 105.83 165.54 105.83 162.17 105.83 162.17 123.33 165.55 123.33 165.55 112.09 172.61 123.33 172.61 123.34 176.03 123.34 176.03 105.83 172.61 105.83 172.61 117.08"/><path d="M149.43,105.83l-6.82,17.51h3.7l1.31-3.57,6.44,0,1.36,3.61h3.73l-6.69-17.51Zm-.61,10.54,2-5.39,2,5.38Z"/><polygon points="132.67 105.83 129.19 105.83 129.19 120.22 129.18 120.22 129.18 123.34 140.21 123.34 140.21 120.22 132.67 120.22 132.67 105.83"/><rect x="111.6" y="105.83" width="3.53" height="17.5"/><polygon points="125.5 105.83 121.46 105.83 116.23 114.59 121.49 123.34 125.61 123.34 120.06 114.61 125.5 105.83"/><path d="M81.21,105.64a9,9,0,1,0,9,9A9,9,0,0,0,81.21,105.64Zm0,14.58a5.61,5.61,0,1,1,5.6-5.6A5.61,5.61,0,0,1,81.21,120.22Z"/><path d="M100.55,105.64a9,9,0,1,0,9,9A9,9,0,0,0,100.55,105.64Zm0,14.58a5.61,5.61,0,1,1,5.61-5.6A5.6,5.6,0,0,1,100.55,120.22Z"/><path d="M69.07,114a5.09,5.09,0,0,0-.3-6.64,6.13,6.13,0,0,0-4.14-1.46l-7.78,0v7h0v2.93h0v4.5h0v2.93h0v.07h3.38v-.07h5.85a5.1,5.1,0,0,0,5-5A4.91,4.91,0,0,0,69.07,114Zm-8.84-5.15,4.44,0h0a3.18,3.18,0,0,1,2,.66,1.82,1.82,0,0,1,.48,1.38,1.67,1.67,0,0,1-1.07,1.71,4,4,0,0,1-1.47.34H60.23ZM66,120.33H60.23v-4.5h4.22c2.84,0,3.66.55,3.66,2.45A2.18,2.18,0,0,1,66,120.33Z"/></svg>