<svg id="Layer_1" data-name="Layer 1" xmlns="http://www.w3.org/2000/svg" viewBox="0 0 130.72 98.17"><defs><style>.cls-1{fill:none;stroke:#fff;stroke-miterlimit:10;}</style></defs><rect class="cls-1" x="0.5" y="5.59" width="124.43" height="72.59"/><polygon class="cls-1" points="124.94 81.5 0.5 81.5 0.5 97.67 3.63 97.67 3.83 84.61 6.96 84.61 7.2 97.67 10.77 97.67 10.48 84.61 14 84.61 14.34 97.67 17.91 97.67 17.98 84.61 21.66 84.61 21.48 97.67 25.05 97.67 25.02 84.61 28.8 84.61 28.61 97.67 32.18 97.67 32.2 84.61 35.91 84.61 35.75 97.67 39.32 97.67 39.5 84.61 43.09 84.61 42.89 97.67 46.46 97.67 46.87 84.61 50 84.61 50.03 97.67 53.6 97.67 53.84 84.61 57.38 84.61 57.17 97.67 60.74 97.67 61.15 84.61 64.41 84.61 64.31 97.67 67.88 97.67 68.19 84.61 72.04 84.61 71.44 97.67 75.01 97.67 75.5 84.61 78.96 84.61 78.58 97.67 82.15 97.67 82.54 84.61 86.39 84.61 85.72 97.67 89.29 97.67 89.91 84.61 93.04 84.61 92.86 97.67 96.43 97.67 96.56 84.61 100.09 84.61 100 97.67 103.57 97.67 103.8 84.61 107.2 84.61 107.14 97.67 110.71 97.67 110.98 84.61 114.37 84.61 114.28 97.67 117.84 97.67 118.02 84.61 121.61 84.61 121.41 97.67 124.94 97.67 124.94 81.5"/><path class="cls-1" d="M188.22,90.68s-3.52-5-11.74-8.51-12.91-13.3-12.91-12.91c-21.14-5.48-18-20-18-20h85.3s3.13,14.48-18,20c0-.39-4.7,9.39-12.91,12.91s-11.74,8.51-11.74,8.51" transform="translate(-125.5 -48.8)"/><path class="cls-1" d="M187.81,111.26a4.5,4.5,0,0,1-1.65-3.94c-2.34-.1-4.41-2.45-4.41-2.45s-3.61-3.13,6.47-10.76c.49,0,11.06,7.43,6.66,10.76,0,0-2.06,2.35-4.41,2.45a4.5,4.5,0,0,1-1.65,3.94A.93.93,0,0,1,187.81,111.26Z" transform="translate(-125.5 -48.8)"/></svg>